<svg preserveAspectRatio="none" width="100%" height="100%" overflow="visible" style="display: block;" viewBox="0 0 48 48" fill="none" xmlns="http://www.w3.org/2000/svg">
<g id="sync_problem">
<path id="Vector" d="M23.9985 34.0075C23.5675 34.0075 23.1922 33.8472 22.8725 33.5265C22.5525 33.2055 22.3925 32.8295 22.3925 32.3985C22.3925 31.9675 22.5528 31.5922 22.8735 31.2725C23.1945 30.9525 23.5705 30.7925 24.0015 30.7925C24.4325 30.7925 24.8078 30.9528 25.1275 31.2735C25.4475 31.5945 25.6075 31.9705 25.6075 32.4015C25.6075 32.8325 25.4472 33.2078 25.1265 33.5275C24.8055 33.8475 24.4295 34.0075 23.9985 34.0075ZM24.091 26.5715C23.6367 26.5715 23.2627 26.4227 22.969 26.125C22.6753 25.827 22.5285 25.4528 22.5285 25.0025V15.49C22.5285 15.0447 22.6782 14.6715 22.9775 14.3705C23.2772 14.0692 23.6543 13.9185 24.109 13.9185C24.5633 13.9185 24.9373 14.0675 25.231 14.3655C25.5247 14.6632 25.6715 15.0373 25.6715 15.488V25C25.6715 25.4453 25.5218 25.8187 25.2225 26.12C24.9228 26.421 24.5457 26.5715 24.091 26.5715ZM9.46 24.162C9.46 26.2497 9.90833 28.1627 10.805 29.901C11.7017 31.6393 13.1555 33.1633 15.1665 34.473V30.06C15.1665 29.618 15.3178 29.2475 15.6205 28.9485C15.9232 28.6495 16.2982 28.5 16.7455 28.5C17.1895 28.5 17.5612 28.6495 17.8605 28.9485C18.1602 29.2475 18.31 29.618 18.31 30.06V38.476C18.31 38.957 18.144 39.3612 17.812 39.6885C17.4803 40.0158 17.0745 40.1795 16.5945 40.1795H8.2045C7.75417 40.1795 7.37933 40.0282 7.08 39.7255C6.78033 39.4228 6.6305 39.0477 6.6305 38.6C6.6305 38.156 6.78117 37.7863 7.0825 37.491C7.3835 37.1957 7.75667 37.048 8.202 37.048H12.8435C10.7182 35.424 9.05317 33.6037 7.8485 31.587C6.64383 29.5703 6.0415 27.0953 6.0415 24.162C6.0415 21.1317 6.84033 18.2842 8.438 15.6195C10.036 12.9552 12.3248 10.915 15.3045 9.499C15.7028 9.31633 16.095 9.32 16.481 9.51C16.867 9.69967 17.135 10.0058 17.285 10.4285C17.4427 10.8428 17.4445 11.2617 17.2905 11.685C17.1362 12.108 16.8567 12.4148 16.452 12.6055C14.418 13.6448 12.7442 15.1978 11.4305 17.2645C10.1168 19.3308 9.46 21.63 9.46 24.162ZM39.0285 23.826C39.0285 21.7413 38.578 19.831 37.677 18.095C36.7763 16.3593 35.3207 14.8367 33.31 13.527V17.94C33.31 18.382 33.1597 18.7525 32.859 19.0515C32.5587 19.3505 32.1865 19.5 31.7425 19.5C31.2982 19.5 30.9263 19.3505 30.627 19.0515C30.328 18.7525 30.1785 18.382 30.1785 17.94V9.524C30.1785 9.043 30.3422 8.63883 30.6695 8.3115C30.9968 7.98417 31.4008 7.8205 31.8815 7.8205H40.286C40.728 7.8205 41.0983 7.97183 41.397 8.2745C41.696 8.57717 41.8455 8.95233 41.8455 9.4C41.8455 9.844 41.696 10.2137 41.397 10.509C41.0983 10.8043 40.728 10.952 40.286 10.952H35.6325C37.7578 12.576 39.4248 14.397 40.6335 16.415C41.8422 18.4333 42.4465 20.9037 42.4465 23.826C42.4465 26.867 41.6457 29.7255 40.044 32.4015C38.4423 35.0772 36.1555 37.123 33.1835 38.539C32.7772 38.7217 32.383 38.7117 32.001 38.509C31.6193 38.3067 31.3495 37.9923 31.1915 37.566C31.0415 37.1553 31.043 36.7363 31.196 36.309C31.3493 35.882 31.6253 35.5732 32.024 35.3825C34.0587 34.3398 35.7347 32.7858 37.052 30.7205C38.3697 28.6548 39.0285 26.3567 39.0285 23.826Z" fill="var(--fill-0, #002A35)"/>
</g>
</svg>
