<svg viewBox="0 0 44 44" fill="none" xmlns="http://www.w3.org/2000/svg" aria-hidden="true">
  <path
    d="M22.0005 5.5C22.7553 5.50002 23.4982 5.55125 24.2261 5.64941C25.0747 5.76387 25.6666 6.51683 25.6666 7.37305V7.64746C25.6666 8.86402 26.4814 9.90911 27.5767 10.4385C28.1503 10.7157 28.7001 11.0345 29.2222 11.3906C30.2271 12.076 31.54 12.2586 32.5933 11.6504L32.8326 11.5117C33.5734 11.084 34.5202 11.2196 35.0445 11.8955C35.9526 13.0661 36.7074 14.3617 37.2769 15.7529C37.6009 16.5445 37.2441 17.4326 36.5035 17.8604L36.2603 18.001C35.2079 18.6087 34.7094 19.8349 34.7984 21.0469C34.8215 21.3616 34.8336 21.6794 34.8336 22C34.8336 22.3206 34.8215 22.6384 34.7984 22.9531C34.7094 24.1651 35.2079 25.3913 36.2603 25.999L36.5035 26.1396C37.2441 26.5674 37.6009 27.4555 37.2769 28.2471C36.7074 29.6383 35.9526 30.9339 35.0445 32.1045C34.5202 32.7804 33.5734 32.916 32.8326 32.4883L32.5933 32.3496C31.5399 31.7414 30.2271 31.924 29.2222 32.6094C28.7001 32.9655 28.1503 33.2843 27.5767 33.5615C26.4814 34.0909 25.6666 35.136 25.6666 36.3525V36.627C25.6666 37.4832 25.0747 38.2361 24.2261 38.3506C23.4982 38.4488 22.7553 38.5 22.0005 38.5C21.2456 38.5 20.5021 38.4488 19.774 38.3506C18.9255 38.2361 18.3336 37.4832 18.3336 36.627V36.3525C18.3335 35.136 17.5188 34.0909 16.4234 33.5615C15.8498 33.2843 15.3 32.9655 14.7779 32.6094C13.773 31.924 12.4602 31.7414 11.4068 32.3496L11.1675 32.4883C10.4267 32.916 9.47993 32.7804 8.95563 32.1045C8.04746 30.9338 7.29271 29.6374 6.7232 28.2461C6.39954 27.4547 6.75621 26.5673 7.49664 26.1396L7.73981 25.999C8.79224 25.3913 9.29071 24.1652 9.20172 22.9531C9.17862 22.6384 9.16656 22.3206 9.16656 22C9.16656 21.6794 9.17862 21.3616 9.20172 21.0469C9.29072 19.8348 8.79222 18.6087 7.73981 18.001L7.49664 17.8604C6.75606 17.4326 6.39921 16.5445 6.7232 15.7529C7.29269 14.3617 8.04754 13.0661 8.95563 11.8955C9.47993 11.2196 10.4267 11.084 11.1675 11.5117L11.4068 11.6504C12.4602 12.2586 13.773 12.076 14.7779 11.3906C15.3 11.0345 15.8498 10.7157 16.4234 10.4385C17.5188 9.9091 18.3335 8.86402 18.3336 7.64746V7.37305C18.3336 6.51683 18.9255 5.76387 19.774 5.64941C20.5021 5.55122 21.2456 5.5 22.0005 5.5ZM21.9996 16.5C18.9622 16.5002 16.4996 18.9626 16.4996 22C16.4996 25.0374 18.9622 27.4998 21.9996 27.5C25.0371 27.5 27.4996 25.0376 27.4996 22C27.4996 18.9624 25.0371 16.5 21.9996 16.5Z"
    fill="#00586a"
  />
</svg>
