<svg preserveAspectRatio="none" width="100%" height="100%" overflow="visible" style="display: block;" viewBox="0 0 48.239 48" fill="none" xmlns="http://www.w3.org/2000/svg">
<g id="dataset_linked">
<path id="Vector" d="M9.1075 40.299C8.1875 40.299 7.38983 39.9612 6.7145 39.2855C6.03883 38.6102 5.701 37.8125 5.701 36.8925V7.1075C5.701 6.18417 6.03883 5.38367 6.7145 4.706C7.38983 4.028 8.1875 3.689 9.1075 3.689H38.8925C39.8158 3.689 40.6163 4.028 41.294 4.706C41.972 5.38367 42.311 6.18417 42.311 7.1075V20.3685C42.311 20.8492 42.1442 21.2532 41.8105 21.5805C41.4765 21.9078 41.0683 22.0715 40.586 22.0715C40.1033 22.0715 39.7003 21.9078 39.377 21.5805C39.054 21.2532 38.8925 20.8492 38.8925 20.3685V7.1075H9.1075V36.8925H14.5715C15.0515 36.8925 15.4573 37.057 15.789 37.386C16.121 37.715 16.287 38.1212 16.287 38.6045C16.287 39.0878 16.121 39.491 15.789 39.814C15.4573 40.1373 15.0515 40.299 14.5715 40.299H9.1075ZM9.1075 34.251V36.8925V7.1075V34.251ZM14.4285 25.988V30.012C14.4285 30.421 14.5622 30.7693 14.8295 31.057C15.0972 31.3443 15.4315 31.504 15.8325 31.536H15.7965C16.1872 30.2547 16.8272 28.9835 17.7165 27.7225C18.6055 26.4612 19.6232 25.3632 20.7695 24.4285H15.9935C15.5492 24.4285 15.1772 24.5778 14.8775 24.8765C14.5782 25.1755 14.4285 25.546 14.4285 25.988ZM14.4285 13.988V18.012C14.4285 18.454 14.5778 18.8245 14.8765 19.1235C15.1755 19.4222 15.546 19.5715 15.988 19.5715H20.012C20.454 19.5715 20.8245 19.4222 21.1235 19.1235C21.4222 18.8245 21.5715 18.454 21.5715 18.012V13.988C21.5715 13.546 21.4222 13.1755 21.1235 12.8765C20.8245 12.5778 20.454 12.4285 20.012 12.4285H15.988C15.546 12.4285 15.1755 12.5778 14.8765 12.8765C14.5778 13.1755 14.4285 13.546 14.4285 13.988ZM28 42.55C25.7377 42.55 23.8008 41.7447 22.1895 40.134C20.5785 38.5237 19.773 36.5843 19.773 34.316C19.773 32.0477 20.576 30.1085 22.182 28.4985C23.788 26.8885 25.7273 26.0835 28 26.0835H29.8805C30.3352 26.0835 30.7187 26.24 31.031 26.553C31.3437 26.8663 31.5 27.2507 31.5 27.706C31.5 28.1613 31.3437 28.5427 31.031 28.85C30.7187 29.1573 30.3352 29.311 29.8805 29.311H28C26.6 29.311 25.4167 29.7963 24.45 30.767C23.4833 31.7377 23 32.921 23 34.317C23 35.713 23.4833 36.8943 24.45 37.861C25.4167 38.8277 26.6007 39.311 28.002 39.311H30.4305C30.8852 39.311 31.2687 39.4683 31.581 39.783C31.8937 40.0977 32.05 40.4838 32.05 40.9415C32.05 41.3995 31.8937 41.782 31.581 42.089C31.2687 42.3963 30.8852 42.55 30.4305 42.55H28ZM27.988 19.5715H32.012C32.454 19.5715 32.8245 19.4222 33.1235 19.1235C33.4222 18.8245 33.5715 18.454 33.5715 18.012V13.988C33.5715 13.546 33.4222 13.1755 33.1235 12.8765C32.8245 12.5778 32.454 12.4285 32.012 12.4285H27.988C27.546 12.4285 27.1755 12.5778 26.8765 12.8765C26.5778 13.1755 26.4285 13.546 26.4285 13.988V18.012C26.4285 18.454 26.5778 18.8245 26.8765 19.1235C27.1755 19.4222 27.546 19.5715 27.988 19.5715ZM29.6195 35.9305C29.1648 35.9305 28.7813 35.7732 28.469 35.4585C28.1563 35.1438 28 34.7577 28 34.3C28 33.842 28.1563 33.4593 28.469 33.152C28.7813 32.845 29.1648 32.6915 29.6195 32.6915H38.3805C38.8352 32.6915 39.2187 32.8488 39.531 33.1635C39.8437 33.4778 40 33.864 40 34.322C40 34.7797 39.8437 35.1622 39.531 35.4695C39.2187 35.7768 38.8352 35.9305 38.3805 35.9305H29.6195ZM40 42.55H37.6195C37.1648 42.55 36.7813 42.3927 36.469 42.078C36.1563 41.7633 36 41.3772 36 40.9195C36 40.4615 36.1563 40.0788 36.469 39.7715C36.7813 39.4645 37.1648 39.311 37.6195 39.311H40.0205C41.4068 39.311 42.5833 38.8277 43.55 37.861C44.5167 36.8943 45 35.711 45 34.311C45 32.919 44.5167 31.7377 43.55 30.767C42.5833 29.7963 41.4 29.311 40 29.311H38.1195C37.6648 29.311 37.2813 29.1538 36.969 28.8395C36.6563 28.5255 36.5 28.1398 36.5 27.6825C36.5 27.2288 36.6563 26.849 36.969 26.543C37.2813 26.2367 37.6648 26.0835 38.1195 26.0835H40C42.2617 26.0835 44.2003 26.8808 45.816 28.4755C47.4313 30.0698 48.239 32.0157 48.239 34.313C48.239 36.5797 47.4313 38.5192 45.816 40.1315C44.2003 41.7438 42.2617 42.55 40 42.55Z" fill="var(--fill-0, white)"/>
</g>
</svg>
