<svg preserveAspectRatio="none" width="100%" height="100%" overflow="visible" style="display: block;" viewBox="0 0 48 48" fill="none" xmlns="http://www.w3.org/2000/svg">
<g id="workspaces">
<path id="Vector" d="M11.3625 42.299C9.17883 42.299 7.33217 41.544 5.8225 40.034C4.3125 38.5243 3.5575 36.6797 3.5575 34.5C3.5575 32.3203 4.3125 30.4737 5.8225 28.96C7.33217 27.446 9.17883 26.689 11.3625 26.689C13.5462 26.689 15.3928 27.446 16.9025 28.96C18.4125 30.4737 19.1675 32.3203 19.1675 34.5C19.1675 36.6797 18.4125 38.5243 16.9025 40.034C15.3928 41.544 13.5462 42.299 11.3625 42.299ZM36.6875 42.299C34.5038 42.299 32.6592 41.544 31.1535 40.034C29.6475 38.5243 28.8945 36.6797 28.8945 34.5C28.8945 32.3203 29.6475 30.4737 31.1535 28.96C32.6592 27.446 34.5038 26.689 36.6875 26.689C38.8712 26.689 40.7178 27.446 42.2275 28.96C43.7375 30.4737 44.4925 32.3203 44.4925 34.5C44.4925 36.6797 43.7375 38.5243 42.2275 40.034C40.7178 41.544 38.8712 42.299 36.6875 42.299ZM11.3615 38.8925C12.5675 38.8925 13.6003 38.463 14.46 37.604C15.3193 36.7453 15.749 35.713 15.749 34.507C15.749 33.301 15.3207 32.2662 14.464 31.4025C13.6073 30.5392 12.5777 30.1075 11.375 30.1075C10.1687 30.1075 9.134 30.537 8.271 31.396C7.40767 32.2547 6.976 33.287 6.976 34.493C6.976 35.699 7.4055 36.7338 8.2645 37.5975C9.12317 38.4608 10.1555 38.8925 11.3615 38.8925ZM36.675 38.8925C37.8813 38.8925 38.916 38.463 39.779 37.604C40.6423 36.7453 41.074 35.713 41.074 34.507C41.074 33.301 40.6445 32.2662 39.7855 31.4025C38.9268 30.5392 37.8945 30.1075 36.6885 30.1075C35.4825 30.1075 34.4497 30.537 33.59 31.396C32.7307 32.2547 32.301 33.287 32.301 34.493C32.301 35.699 32.7293 36.7338 33.586 37.5975C34.4427 38.4608 35.4723 38.8925 36.675 38.8925ZM24.05 20.974C21.8703 20.974 20.0257 20.219 18.516 18.709C17.006 17.1993 16.251 15.3527 16.251 13.169C16.251 10.9853 17.006 9.14067 18.516 7.635C20.0257 6.129 21.8703 5.376 24.05 5.376C26.2297 5.376 28.0763 6.129 29.59 7.635C31.104 9.14067 31.861 10.9853 31.861 13.169C31.861 15.3527 31.104 17.1993 29.59 18.709C28.0763 20.219 26.2297 20.974 24.05 20.974ZM24.043 17.5675C25.249 17.5675 26.2838 17.138 27.1475 16.279C28.0108 15.4203 28.4425 14.388 28.4425 13.182C28.4425 11.976 28.013 10.9412 27.154 10.0775C26.2953 9.21417 25.263 8.7825 24.057 8.7825C22.851 8.7825 21.8162 9.2135 20.9525 10.0755C20.0892 10.9375 19.6575 11.9698 19.6575 13.1725C19.6575 14.3788 20.087 15.4128 20.946 16.2745C21.8047 17.1365 22.837 17.5675 24.043 17.5675Z" fill="var(--fill-0, white)"/>
</g>
</svg>
