<svg width="241" height="51" viewBox="0 0 241 51" fill="none" xmlns="http://www.w3.org/2000/svg">
<g id="07. Footer">
<g id="Footer">
<g id="Frame 2085662203">
<g id="Group">
<g id="Group_2">
<path id="Vector" d="M71.4635 32.3282H64.1735C63.9935 32.3282 63.8135 32.2858 63.6535 32.2115C63.4835 32.1372 63.3335 32.0311 63.2135 31.8932C63.0835 31.7553 62.9935 31.5961 62.9235 31.4157C62.8635 31.2354 62.8335 31.0444 62.8335 30.8534C62.8335 30.62 62.8835 30.3972 62.9835 30.185L69.3835 16.3709H64.2935C63.9735 16.3709 63.6735 16.233 63.4435 15.9996C63.2235 15.7555 63.0935 15.4372 63.0935 15.0977C63.0935 14.7582 63.2235 14.4399 63.4435 14.1959C63.6635 13.9519 63.9735 13.8245 64.2935 13.8245H71.1235C71.2935 13.8033 71.4735 13.8245 71.6435 13.8776C71.8135 13.9306 71.9635 14.0261 72.0935 14.1534C72.2235 14.2808 72.3335 14.4293 72.4035 14.5991C72.4735 14.7688 72.5135 14.9598 72.5135 15.1402C72.4935 15.4479 72.4135 15.7449 72.2835 16.0208L65.9235 29.7924H71.4435C71.7635 29.7924 72.0635 29.9304 72.2935 30.1638C72.5135 30.4078 72.6435 30.7261 72.6435 31.0656C72.6435 31.4051 72.5135 31.7234 72.2935 31.9675C72.0735 32.2115 71.7635 32.3388 71.4435 32.3388L71.4635 32.3282Z" fill="#FDFDFD"/>
<path id="Vector_2" d="M82.8136 26.4621H77.4636C77.3036 26.4727 77.1336 26.4515 76.9836 26.3878C76.8336 26.3241 76.6836 26.2393 76.5636 26.1225C76.4436 26.0058 76.3436 25.8573 76.2836 25.6982C76.2236 25.539 76.1836 25.3692 76.1836 25.1889C76.1836 25.0085 76.2136 24.8388 76.2836 24.6796C76.3536 24.5205 76.4436 24.3719 76.5636 24.2552C76.6836 24.1385 76.8236 24.043 76.9836 23.99C77.1336 23.9263 77.3036 23.9051 77.4636 23.9157H82.8136C83.1136 23.9369 83.4036 24.0854 83.6036 24.3189C83.8036 24.5523 83.9236 24.86 83.9236 25.1889C83.9236 25.5178 83.8036 25.8255 83.6036 26.0589C83.4036 26.2923 83.1136 26.4408 82.8136 26.4621Z" fill="#FDFDFD"/>
<path id="Vector_3" d="M100.334 32.488C100.174 32.488 100.014 32.4667 99.8635 32.4031C99.7135 32.3394 99.5735 32.2439 99.4635 32.1272C99.3535 32.0105 99.2635 31.862 99.2035 31.7028C99.1435 31.5437 99.1135 31.3739 99.1235 31.2042V19.841L96.4035 26.5464C96.2835 26.8011 96.1035 27.0133 95.8735 27.1512C95.6435 27.2891 95.3835 27.3634 95.1135 27.3528C94.8535 27.3528 94.6035 27.2891 94.3835 27.1406C94.1635 27.0026 93.9835 26.7904 93.8735 26.5464L91.0435 19.841V31.2042C91.0235 31.5331 90.8835 31.8408 90.6635 32.0636C90.4435 32.2864 90.1435 32.4137 89.8335 32.4137C89.5235 32.4137 89.2335 32.2864 89.0035 32.0636C88.7835 31.8408 88.6435 31.5331 88.6235 31.2042V14.9392C88.6335 14.5997 88.7635 14.2814 88.9935 14.048C89.2235 13.8145 89.5235 13.666 89.8335 13.6554H90.1535C90.4035 13.6236 90.6635 13.6872 90.8835 13.8146C91.1035 13.9419 91.2835 14.1541 91.3935 14.3981L95.1235 23.2467L98.8035 14.3981C98.8935 14.1435 99.0735 13.9313 99.2935 13.7933C99.5135 13.6554 99.7735 13.613 100.034 13.6554H100.324C100.644 13.666 100.944 13.8039 101.164 14.048C101.384 14.2814 101.524 14.6103 101.534 14.9392V31.2042C101.534 31.3739 101.514 31.5437 101.454 31.7028C101.394 31.862 101.304 32.0105 101.194 32.1272C101.084 32.2439 100.944 32.3394 100.794 32.4031C100.644 32.4667 100.484 32.488 100.324 32.488H100.334Z" fill="#FDFDFD"/>
<path id="Vector_4" d="M117.084 32.4877C116.824 32.4877 116.564 32.3922 116.354 32.2224C116.144 32.0527 115.994 31.8193 115.924 31.5434L114.894 27.9891H109.294L108.284 31.5222C108.214 31.798 108.054 32.0315 107.844 32.2012C107.634 32.371 107.374 32.4558 107.104 32.4558C106.944 32.4665 106.784 32.4558 106.634 32.4028C106.484 32.3498 106.344 32.2649 106.234 32.1482C106.114 32.0315 106.024 31.8935 105.964 31.745C105.904 31.5964 105.864 31.4267 105.864 31.2569C105.864 31.1084 105.884 30.9705 105.914 30.8219L110.704 14.6418C110.804 14.3342 110.994 14.0795 111.244 13.8991C111.494 13.7188 111.794 13.6233 112.094 13.6339C112.404 13.6127 112.704 13.7082 112.954 13.8885C113.204 14.0689 113.394 14.3342 113.484 14.6524L118.274 30.8644C118.304 30.9917 118.324 31.1296 118.324 31.2675C118.324 31.4373 118.294 31.6071 118.234 31.7556C118.174 31.9147 118.084 32.0527 117.964 32.1694C117.844 32.2861 117.714 32.371 117.554 32.424C117.404 32.4771 117.244 32.4983 117.084 32.4877ZM112.094 18.3871L110.054 25.4639H114.134L112.094 18.3871Z" fill="#FDFDFD"/>
<path id="Vector_5" d="M131.534 32.4876H131.254C130.944 32.4876 130.654 32.3709 130.404 32.18C130.164 31.9784 129.984 31.7131 129.894 31.3948L125.084 19.8407V31.2038C125.094 31.3736 125.074 31.5434 125.014 31.7025C124.954 31.8617 124.874 32.0102 124.764 32.1269C124.654 32.2436 124.514 32.3391 124.364 32.4028C124.214 32.4664 124.054 32.4876 123.894 32.4876C123.734 32.4876 123.574 32.4664 123.424 32.4028C123.274 32.3391 123.134 32.2436 123.024 32.1269C122.904 32.0102 122.814 31.8617 122.754 31.7025C122.694 31.5434 122.664 31.3736 122.664 31.2038V14.9919C122.664 14.8116 122.694 14.6312 122.754 14.472C122.814 14.3023 122.914 14.1538 123.034 14.0264C123.154 13.8991 123.294 13.8036 123.454 13.74C123.614 13.6763 123.784 13.6445 123.944 13.6551H124.224C124.504 13.6339 124.784 13.7081 125.024 13.8779C125.254 14.0477 125.434 14.3023 125.514 14.5888L130.324 26.1323V14.9389C130.314 14.7691 130.334 14.5994 130.394 14.4402C130.454 14.2811 130.534 14.1325 130.644 14.0158C130.754 13.8991 130.894 13.8036 131.044 13.74C131.194 13.6763 131.354 13.6551 131.514 13.6551C131.674 13.6551 131.834 13.6763 131.994 13.74C132.144 13.8036 132.284 13.8991 132.404 14.0158C132.524 14.1325 132.614 14.2811 132.674 14.4402C132.734 14.5994 132.764 14.7691 132.764 14.9389V31.2038C132.764 31.5434 132.624 31.8617 132.394 32.1057C132.164 32.3497 131.864 32.4876 131.544 32.4876H131.534Z" fill="#FDFDFD"/>
<path id="Vector_6" d="M148.273 32.4877C148.013 32.4877 147.753 32.3922 147.543 32.2224C147.333 32.0527 147.183 31.8193 147.113 31.5434L146.093 27.9891H140.493L139.483 31.5222C139.413 31.798 139.253 32.0315 139.043 32.2012C138.833 32.371 138.563 32.4558 138.303 32.4558C138.143 32.4665 137.983 32.4558 137.843 32.3922C137.693 32.3391 137.553 32.2543 137.443 32.1376C137.323 32.0208 137.233 31.8829 137.173 31.7344C137.113 31.5858 137.083 31.4161 137.083 31.2463C137.083 31.0978 137.103 30.9599 137.133 30.8113L141.923 14.6312C142.023 14.3342 142.213 14.0795 142.453 13.8991C142.693 13.7188 142.983 13.6233 143.283 13.6339C143.583 13.6127 143.883 13.7082 144.133 13.8885C144.383 14.0689 144.573 14.3342 144.663 14.6524L149.453 30.8644C149.483 30.9917 149.493 31.1296 149.503 31.2675C149.503 31.4373 149.463 31.5964 149.403 31.745C149.343 31.8935 149.253 32.0315 149.133 32.1376C149.023 32.2543 148.884 32.3391 148.743 32.3922C148.594 32.4452 148.443 32.4771 148.283 32.4665L148.273 32.4877ZM143.273 18.3871L141.223 25.4851H145.303L143.263 18.3871H143.273Z" fill="#FDFDFD"/>
<path id="Vector_7" d="M158.693 32.4876H158.443C157.803 32.4876 157.163 32.3709 156.573 32.1162C155.973 31.8616 155.433 31.4902 154.973 31.0022C154.513 30.5247 154.153 29.9518 153.903 29.3258C153.653 28.6998 153.523 28.0208 153.523 27.3418V18.769C153.523 18.09 153.653 17.4109 153.903 16.7849C154.153 16.159 154.513 15.586 154.973 15.1192C155.433 14.6417 155.973 14.2704 156.563 14.0158C157.163 13.7611 157.793 13.6444 158.433 13.655H158.683C161.303 13.655 163.353 15.533 163.573 17.8565V17.9839C163.573 18.143 163.543 18.3128 163.483 18.4613C163.423 18.6098 163.333 18.7478 163.223 18.8539C163.113 18.9706 162.983 19.0555 162.833 19.1085C162.693 19.1616 162.533 19.1934 162.383 19.1828C162.083 19.1828 161.793 19.0767 161.573 18.8539C161.353 18.6417 161.213 18.3446 161.193 18.0263C161.073 16.8274 159.913 16.1802 158.673 16.1802H158.423C158.103 16.1802 157.783 16.2332 157.483 16.3605C157.183 16.4879 156.913 16.6788 156.673 16.9123C156.443 17.1563 156.253 17.4321 156.133 17.7504C156.003 18.0687 155.943 18.4083 155.933 18.7478V27.3312C155.933 27.6813 156.003 28.0208 156.123 28.3391C156.253 28.6574 156.433 28.9439 156.663 29.1879C156.893 29.4319 157.173 29.6229 157.473 29.7502C157.773 29.8775 158.093 29.9412 158.423 29.9306H158.673C159.333 29.92 159.973 29.6335 160.433 29.1349C160.903 28.6362 161.163 27.9572 161.173 27.2569V24.4983H159.123C158.963 24.4983 158.803 24.4665 158.653 24.4028C158.503 24.3392 158.373 24.2437 158.253 24.1164C158.143 23.9891 158.053 23.8511 158.003 23.6814C157.953 23.5222 157.923 23.3525 157.933 23.1827C157.933 23.0236 157.963 22.8538 158.023 22.7053C158.083 22.5567 158.173 22.4188 158.283 22.3127C158.393 22.196 158.523 22.1111 158.673 22.0581C158.813 22.005 158.973 21.9732 159.123 21.9838H162.353C162.673 21.9838 162.973 22.1217 163.203 22.3551C163.433 22.5885 163.573 22.9068 163.583 23.2464V27.2675C163.583 27.9572 163.463 28.6362 163.213 29.2728C162.963 29.9094 162.603 30.4823 162.143 30.9704C161.683 31.4584 161.143 31.8404 160.543 32.1056C159.943 32.3709 159.303 32.4982 158.663 32.4982L158.693 32.4876Z" fill="#FDFDFD"/>
<path id="Vector_8" d="M177.784 32.3286H170.124C169.804 32.318 169.504 32.1694 169.284 31.936C169.064 31.692 168.934 31.3737 168.914 31.0342V15.0981C168.924 14.7586 169.054 14.4403 169.284 14.1963C169.504 13.9522 169.814 13.8143 170.124 13.8037H177.784C178.104 13.8037 178.404 13.9416 178.634 14.1751C178.864 14.4085 178.984 14.7374 178.984 15.0769C178.984 15.4164 178.854 15.7347 178.634 15.9787C178.414 16.2228 178.104 16.3501 177.784 16.3501H171.334V21.5171H175.724C175.884 21.5065 176.044 21.5277 176.194 21.5914C176.344 21.655 176.484 21.7399 176.594 21.8566C176.704 21.9733 176.794 22.1219 176.854 22.281C176.914 22.4402 176.934 22.6099 176.934 22.7797C176.934 22.9494 176.914 23.1192 176.854 23.2783C176.794 23.4375 176.704 23.586 176.594 23.7027C176.484 23.8194 176.344 23.9149 176.194 23.9786C176.044 24.0423 175.884 24.0741 175.724 24.0635H171.334V29.7822H177.784C178.104 29.7822 178.404 29.9201 178.634 30.1536C178.864 30.3976 178.984 30.7159 178.984 31.0554C178.984 31.3949 178.854 31.7132 178.634 31.9572C178.414 32.2013 178.104 32.3286 177.784 32.3286Z" fill="#FDFDFD"/>
<path id="Vector_9" d="M195.044 32.4882C194.884 32.4882 194.724 32.467 194.574 32.4033C194.424 32.3397 194.284 32.2442 194.174 32.1275C194.064 32.0108 193.974 31.8622 193.914 31.7031C193.854 31.5439 193.824 31.3742 193.834 31.2044V19.8412L191.114 26.5467C190.994 26.8013 190.814 27.0029 190.584 27.1514C190.354 27.2894 190.094 27.3636 189.834 27.353C189.574 27.353 189.324 27.2894 189.104 27.1514C188.884 27.0135 188.704 26.8013 188.594 26.5573L185.774 19.8518V31.215C185.774 31.3848 185.744 31.5546 185.684 31.7031C185.624 31.8622 185.534 32.0002 185.424 32.1169C185.314 32.2336 185.174 32.3291 185.034 32.3927C184.884 32.4564 184.734 32.4882 184.574 32.4882C184.414 32.4882 184.254 32.4564 184.114 32.3927C183.964 32.3291 183.834 32.2336 183.724 32.1169C183.614 32.0002 183.524 31.8516 183.464 31.7031C183.404 31.5439 183.374 31.3848 183.374 31.215V14.9501C183.384 14.6106 183.514 14.2923 183.744 14.0588C183.964 13.8254 184.264 13.6769 184.584 13.6663H184.894C185.144 13.6451 185.404 13.6981 185.624 13.836C185.844 13.974 186.024 14.1756 186.134 14.4196L189.864 23.2682L193.544 14.4196C193.644 14.1649 193.814 13.9527 194.044 13.8148C194.264 13.6769 194.534 13.6344 194.784 13.6769H195.094C195.414 13.6875 195.714 13.8254 195.934 14.0695C196.154 14.3029 196.294 14.6318 196.304 14.9607V31.2256C196.304 31.3954 196.284 31.5652 196.224 31.7243C196.164 31.8835 196.074 32.032 195.964 32.1487C195.854 32.2654 195.714 32.3609 195.564 32.4246C195.414 32.4882 195.254 32.5094 195.094 32.5094L195.044 32.4882Z" fill="#FDFDFD"/>
<path id="Vector_10" d="M210.724 32.3286H203.064C202.744 32.318 202.444 32.18 202.214 31.936C201.994 31.692 201.854 31.3737 201.844 31.0342V15.0981C201.854 14.7586 201.984 14.4403 202.214 14.1963C202.444 13.9522 202.744 13.8143 203.064 13.8037H210.724C211.044 13.8037 211.344 13.9416 211.574 14.1751C211.804 14.4085 211.924 14.7374 211.924 15.0769C211.924 15.4164 211.794 15.7347 211.574 15.9787C211.344 16.2228 211.044 16.3501 210.724 16.3501H204.294V21.5171H208.684C208.844 21.5065 209.004 21.5277 209.154 21.5914C209.304 21.655 209.444 21.7399 209.554 21.8566C209.664 21.9733 209.754 22.1219 209.814 22.281C209.874 22.4402 209.894 22.6099 209.894 22.7797C209.894 22.9494 209.874 23.1192 209.814 23.2783C209.754 23.4375 209.664 23.586 209.554 23.7027C209.444 23.8194 209.304 23.9149 209.154 23.9786C209.004 24.0423 208.844 24.0635 208.684 24.0635H204.294V29.7822H210.744C211.064 29.7822 211.364 29.9201 211.594 30.1536C211.814 30.3976 211.944 30.7159 211.944 31.0554C211.944 31.3949 211.814 31.7132 211.594 31.9572C211.374 32.2013 211.064 32.3286 210.744 32.3286H210.724Z" fill="#FDFDFD"/>
<path id="Vector_11" d="M225.143 32.4876H224.863C224.553 32.4876 224.253 32.3815 224.013 32.18C223.763 31.9784 223.583 31.7131 223.503 31.3948L218.693 19.8407V31.2038C218.703 31.3736 218.683 31.5434 218.623 31.7025C218.563 31.8617 218.483 32.0102 218.373 32.1269C218.263 32.2436 218.123 32.3391 217.973 32.4028C217.823 32.4664 217.663 32.4876 217.503 32.4876C217.343 32.4876 217.183 32.4664 217.023 32.4028C216.873 32.3391 216.733 32.2436 216.623 32.1269C216.503 32.0102 216.413 31.8617 216.353 31.7025C216.293 31.5434 216.263 31.3736 216.263 31.2038V14.9919C216.263 14.8116 216.293 14.6312 216.353 14.472C216.413 14.3023 216.513 14.1538 216.633 14.0264C216.753 13.8991 216.893 13.8036 217.053 13.74C217.213 13.6763 217.383 13.6445 217.543 13.6551H217.843C218.123 13.6339 218.403 13.7081 218.643 13.8779C218.873 14.0477 219.053 14.3023 219.133 14.5888L223.943 26.1323V14.9389C223.933 14.7691 223.953 14.5994 224.013 14.4402C224.073 14.2811 224.153 14.1325 224.263 14.0158C224.373 13.8991 224.513 13.8036 224.663 13.74C224.813 13.6763 224.973 13.6551 225.133 13.6551C225.293 13.6551 225.453 13.6763 225.603 13.74C225.753 13.8036 225.893 13.8991 226.003 14.0158C226.123 14.1325 226.213 14.2811 226.273 14.4402C226.333 14.5994 226.363 14.7691 226.363 14.9389V31.2038C226.363 31.5434 226.223 31.8723 225.993 32.1057C225.763 32.3497 225.453 32.477 225.133 32.4876H225.143Z" fill="#FDFDFD"/>
<path id="Vector_12" d="M238.793 16.3608H236.403V31.2041C236.403 31.3738 236.373 31.5436 236.313 31.6921C236.253 31.8513 236.163 31.9892 236.053 32.1059C235.943 32.2226 235.813 32.3181 235.663 32.3818C235.513 32.4454 235.363 32.4773 235.203 32.4773C235.043 32.4773 234.883 32.4454 234.743 32.3818C234.593 32.3181 234.463 32.2226 234.353 32.1059C234.243 31.9892 234.153 31.8407 234.093 31.6921C234.033 31.533 234.003 31.3738 234.003 31.2041V16.3608H231.603C231.283 16.3608 230.983 16.2229 230.753 15.9895C230.533 15.7455 230.403 15.4272 230.403 15.0876C230.403 14.7481 230.533 14.4298 230.753 14.1858C230.973 13.9418 231.283 13.8145 231.603 13.8145H238.813C239.133 13.8145 239.433 13.9524 239.663 14.1858C239.893 14.4192 240.013 14.7481 240.013 15.0876C240.013 15.4272 239.883 15.7455 239.663 15.9895C239.443 16.2335 239.133 16.3608 238.813 16.3608H238.793Z" fill="#FDFDFD"/>
<path id="Vector_13" d="M65.8736 50.6094H63.7436C63.6036 50.6094 63.4836 50.5352 63.3836 50.4397C63.2836 50.3336 63.2336 50.1957 63.2236 50.0577V41.0499C63.2236 40.9014 63.2936 40.7635 63.3836 40.668C63.4836 40.5619 63.6136 40.4982 63.7436 40.4982H65.8736C66.2036 40.4876 66.5336 40.5513 66.8436 40.6786C67.1536 40.8059 67.4336 41.0075 67.6736 41.2515C67.9136 41.5062 68.0936 41.8032 68.2136 42.1321C68.3336 42.461 68.3936 42.8112 68.3836 43.1719C68.4036 43.6069 68.3136 44.0525 68.1236 44.4451C67.9336 44.8377 67.6536 45.1666 67.3036 45.4106C67.6736 45.644 67.9836 45.9835 68.1936 46.3867C68.4036 46.7899 68.5036 47.2461 68.4936 47.7129V47.8296C68.4936 48.201 68.4236 48.5617 68.2936 48.9012C68.1636 49.2408 67.9736 49.5484 67.7236 49.8031C67.4836 50.0577 67.1936 50.2699 66.8736 50.4078C66.5536 50.5458 66.2136 50.62 65.8736 50.62V50.6094ZM67.3336 43.1401C67.3436 42.9279 67.3136 42.7263 67.2436 42.5353C67.1736 42.3443 67.0636 42.164 66.9236 42.0154C66.7836 41.8669 66.6236 41.7502 66.4336 41.6759C66.2536 41.6016 66.0536 41.5698 65.8636 41.5804H64.2636V44.8058H65.8636C66.0636 44.8058 66.2636 44.7528 66.4436 44.6679C66.6236 44.583 66.7936 44.4557 66.9336 44.2966C67.0736 44.1374 67.1736 43.957 67.2436 43.7555C67.3136 43.5539 67.3436 43.3417 67.3236 43.1295L67.3336 43.1401ZM67.4436 47.6811C67.4436 47.2355 67.2836 46.8005 66.9936 46.4716C66.7036 46.1427 66.3036 45.9517 65.8736 45.9411H64.2736V49.4848H65.8736C66.0836 49.4848 66.2936 49.4424 66.4836 49.3575C66.6736 49.2726 66.8536 49.1453 67.0036 48.9967C67.1536 48.8376 67.2636 48.6572 67.3436 48.445C67.4236 48.2434 67.4636 48.0206 67.4636 47.7978L67.4436 47.6705V47.6811Z" fill="#FDFDFD"/>
<path id="Vector_14" d="M76.7934 50.6945H76.6535C76.3135 50.6945 75.9634 50.6202 75.6535 50.4823C75.3335 50.3443 75.0435 50.1428 74.8035 49.8775C74.5635 49.6229 74.3635 49.3152 74.2335 48.9757C74.1035 48.6361 74.0334 48.2754 74.0334 47.9041V40.9334C74.0334 40.7848 74.0934 40.6469 74.1834 40.5408C74.2834 40.4347 74.4135 40.3817 74.5535 40.3817C74.6935 40.3817 74.8234 40.4453 74.9234 40.5408C75.0234 40.6469 75.0734 40.7848 75.0734 40.9334V47.9041C75.0734 48.1269 75.1034 48.3497 75.1834 48.5513C75.2634 48.7529 75.3734 48.9438 75.5234 49.103C75.6734 49.2621 75.8434 49.3895 76.0334 49.4743C76.2234 49.5592 76.4334 49.6016 76.6434 49.6016H76.7834C76.9934 49.6016 77.1934 49.5592 77.3834 49.4743C77.5734 49.3895 77.7434 49.2621 77.8934 49.1136C78.0334 48.9544 78.1535 48.7741 78.2335 48.5725C78.3135 48.3709 78.3534 48.1481 78.3534 47.9359V40.9334C78.3534 40.7848 78.4134 40.6469 78.5034 40.5408C78.5934 40.4347 78.7335 40.3817 78.8735 40.3817C79.0135 40.3817 79.1434 40.4453 79.2434 40.5408C79.3434 40.6469 79.3934 40.7848 79.3934 40.9334V47.9041C79.3934 48.2648 79.3334 48.6361 79.2034 48.9757C79.0734 49.3152 78.8834 49.6229 78.6334 49.8775C78.3934 50.1321 78.1034 50.3443 77.7834 50.4823C77.4634 50.6202 77.1234 50.6945 76.7834 50.6945H76.7934Z" fill="#FDFDFD"/>
<path id="Vector_15" d="M87.6535 50.6952H87.5335C86.1135 50.6952 84.8035 49.7297 84.8035 47.9791C84.8035 47.8305 84.8635 47.6926 84.9535 47.5865C85.0535 47.4804 85.1835 47.4273 85.3235 47.4273C85.4635 47.4273 85.5935 47.491 85.6935 47.5865C85.7935 47.6926 85.8435 47.8305 85.8435 47.9791C85.8435 48.2019 85.8935 48.4247 85.9835 48.6263C86.0735 48.8279 86.2035 49.0188 86.3635 49.1674C86.5235 49.3159 86.7135 49.4326 86.9135 49.4963C87.1135 49.5599 87.3335 49.5918 87.5435 49.5599H87.6835C87.8935 49.5918 88.1035 49.5705 88.3135 49.5069C88.5135 49.4326 88.7035 49.3159 88.8535 49.1568C89.0035 48.9976 89.1235 48.8066 89.1835 48.5944C89.2535 48.3822 89.2735 48.1488 89.2435 47.926C89.2435 46.7271 88.4535 46.3876 87.6035 45.8889C86.2835 45.125 84.9435 44.7324 84.9435 42.8863C84.9535 42.5362 85.0335 42.1967 85.1735 41.8784C85.3135 41.5601 85.5035 41.2842 85.7435 41.0508C85.9835 40.8174 86.2635 40.637 86.5735 40.5203C86.8835 40.4036 87.2035 40.3505 87.5335 40.3718H87.6735C89.0035 40.3718 90.1835 41.3691 90.1835 42.7166C90.1835 42.7908 90.1835 42.8651 90.1535 42.9287C90.1335 42.9924 90.0935 43.0561 90.0435 43.1091C89.9935 43.1622 89.9435 43.2046 89.8735 43.2258C89.8135 43.247 89.7435 43.2683 89.6735 43.2577C89.5335 43.2577 89.4035 43.2046 89.2935 43.1091C89.1935 43.0136 89.1235 42.8757 89.1035 42.7272C89.0535 42.3558 88.8735 42.0163 88.5935 41.7829C88.3135 41.5495 87.9635 41.4434 87.6135 41.4752H87.4935C87.3035 41.454 87.1135 41.4752 86.9435 41.5389C86.7635 41.6025 86.6035 41.698 86.4535 41.8253C86.3135 41.9526 86.1935 42.1118 86.1135 42.2922C86.0335 42.4725 85.9835 42.6635 85.9735 42.8651C85.9735 43.9261 86.8235 44.2762 87.5735 44.6688C88.9535 45.4539 90.2735 45.9313 90.2735 47.926C90.2935 49.613 89.3135 50.6634 87.6535 50.6634V50.6952Z" fill="#FDFDFD"/>
<path id="Vector_16" d="M96.3435 50.6938C96.2735 50.6938 96.2035 50.6938 96.1435 50.662C96.0835 50.6301 96.0235 50.5983 95.9735 50.5453C95.9235 50.4922 95.8835 50.4286 95.8635 50.3649C95.8335 50.3012 95.8235 50.227 95.8235 50.1527V40.9433C95.8235 40.7948 95.8835 40.6569 95.9735 40.5508C96.0735 40.4447 96.2035 40.3916 96.3435 40.3916C96.4835 40.3916 96.6135 40.4553 96.7135 40.5508C96.8135 40.6569 96.8635 40.7948 96.8635 40.9433V50.1527C96.8635 50.227 96.8635 50.3012 96.8235 50.3649C96.7935 50.4286 96.7635 50.4922 96.7135 50.5453C96.6635 50.5983 96.6035 50.6408 96.5435 50.662C96.4835 50.6832 96.4135 50.7044 96.3435 50.6938Z" fill="#FDFDFD"/>
<path id="Vector_17" d="M107.723 50.6946C107.573 50.7159 107.413 50.6734 107.283 50.5779C107.153 50.4825 107.053 50.3551 107.013 50.196L104.003 42.9919V50.196C104.003 50.3445 103.943 50.4825 103.853 50.5886C103.753 50.6947 103.623 50.7477 103.483 50.7477C103.343 50.7477 103.213 50.684 103.113 50.5886C103.013 50.4825 102.963 50.3445 102.963 50.196V40.9548C102.963 40.8699 102.983 40.785 103.013 40.7107C103.043 40.6365 103.093 40.5622 103.153 40.5092C103.213 40.4561 103.283 40.4137 103.353 40.3818C103.423 40.3606 103.503 40.35 103.583 40.35C103.733 40.3288 103.883 40.3712 104.013 40.4561C104.143 40.541 104.243 40.6683 104.293 40.8168L107.283 48.0846V40.8805C107.283 40.8062 107.293 40.732 107.323 40.6577C107.353 40.594 107.393 40.5304 107.443 40.4773C107.493 40.4243 107.553 40.3818 107.613 40.3606C107.683 40.3288 107.753 40.3182 107.823 40.3182C107.893 40.3182 107.963 40.3182 108.023 40.3606C108.083 40.3924 108.143 40.4243 108.193 40.4773C108.243 40.5304 108.283 40.594 108.303 40.6577C108.323 40.7214 108.333 40.7956 108.333 40.8699V50.0262C108.333 50.1111 108.333 50.196 108.303 50.2809C108.273 50.3657 108.233 50.44 108.173 50.5037C108.113 50.5673 108.053 50.6098 107.973 50.6416C107.893 50.6734 107.813 50.684 107.733 50.684L107.723 50.6946Z" fill="#FDFDFD"/>
<path id="Vector_18" d="M119.113 50.6093H114.793C114.653 50.6093 114.533 50.535 114.433 50.4395C114.333 50.3334 114.283 50.1955 114.273 50.0576V41.0498C114.273 40.9012 114.343 40.7633 114.433 40.6678C114.533 40.5617 114.663 40.498 114.793 40.498H119.113C119.253 40.498 119.383 40.5617 119.483 40.6572C119.583 40.7633 119.633 40.9012 119.633 41.0498C119.633 41.1983 119.573 41.3362 119.483 41.4423C119.383 41.5484 119.253 41.6015 119.113 41.6015H115.313V44.8057H117.953C118.093 44.8057 118.223 44.8693 118.323 44.9648C118.423 45.0709 118.473 45.2088 118.473 45.3574C118.473 45.5059 118.413 45.6438 118.323 45.7499C118.223 45.856 118.093 45.9091 117.953 45.9091H115.313V49.474H119.113C119.253 49.474 119.383 49.5377 119.483 49.6332C119.583 49.7393 119.633 49.8772 119.633 50.0257C119.633 50.1743 119.573 50.3122 119.483 50.4183C119.383 50.5244 119.253 50.5774 119.113 50.5774V50.6093Z" fill="#FDFDFD"/>
<path id="Vector_19" d="M127.054 50.6952H126.934C125.514 50.6952 124.204 49.7297 124.204 47.9791C124.204 47.8305 124.254 47.6926 124.354 47.5865C124.454 47.4804 124.584 47.4273 124.724 47.4273C124.864 47.4273 124.994 47.491 125.094 47.5865C125.194 47.6926 125.244 47.8305 125.244 47.9791C125.244 48.2019 125.294 48.4247 125.384 48.6263C125.474 48.8279 125.604 49.0188 125.764 49.1674C125.924 49.3159 126.114 49.4326 126.314 49.4963C126.514 49.5599 126.734 49.5918 126.944 49.5599H127.084C127.294 49.5918 127.514 49.5705 127.714 49.5069C127.914 49.4326 128.104 49.3159 128.254 49.1568C128.404 48.9976 128.524 48.8066 128.584 48.5944C128.654 48.3822 128.674 48.1488 128.644 47.926C128.644 46.7271 127.854 46.3876 127.004 45.8889C125.674 45.125 124.334 44.7324 124.334 42.8863C124.344 42.5362 124.424 42.1967 124.564 41.8784C124.704 41.5601 124.894 41.2842 125.134 41.0508C125.374 40.8174 125.654 40.637 125.964 40.5203C126.274 40.4036 126.594 40.3505 126.924 40.3718H127.064C128.394 40.3718 129.574 41.3691 129.574 42.7166C129.574 42.7908 129.574 42.8651 129.544 42.9287C129.524 42.9924 129.484 43.0561 129.434 43.1091C129.384 43.1622 129.334 43.2046 129.264 43.2258C129.204 43.2577 129.134 43.2683 129.064 43.2577C128.924 43.2577 128.794 43.2046 128.684 43.1091C128.584 43.0136 128.514 42.8757 128.494 42.7272C128.444 42.3558 128.264 42.0163 127.984 41.7829C127.704 41.5495 127.354 41.4434 127.004 41.4752H126.884C126.694 41.454 126.504 41.4752 126.334 41.5389C126.154 41.6025 125.994 41.698 125.844 41.8253C125.704 41.9526 125.584 42.1118 125.504 42.2922C125.424 42.4725 125.374 42.6635 125.364 42.8651C125.364 43.9261 126.224 44.2762 126.964 44.6688C128.344 45.4539 129.654 45.9313 129.654 47.926C129.694 49.613 128.694 50.6634 127.034 50.6634L127.054 50.6952Z" fill="#FDFDFD"/>
<path id="Vector_20" d="M137.383 50.6952H137.263C135.843 50.6952 134.523 49.7297 134.523 47.9791C134.523 47.8305 134.583 47.6926 134.673 47.5865C134.773 47.4804 134.903 47.4273 135.043 47.4273C135.183 47.4273 135.313 47.491 135.413 47.5865C135.513 47.6926 135.563 47.8305 135.563 47.9791C135.563 48.2019 135.613 48.4247 135.703 48.6263C135.793 48.8279 135.923 49.0188 136.083 49.1674C136.243 49.3159 136.433 49.4326 136.633 49.4963C136.833 49.5599 137.053 49.5918 137.263 49.5599H137.403C137.613 49.5918 137.833 49.5705 138.033 49.5069C138.233 49.4326 138.423 49.3159 138.573 49.1568C138.723 48.9976 138.843 48.8066 138.913 48.5944C138.983 48.3822 139.003 48.1488 138.973 47.926C138.973 46.7271 138.183 46.3876 137.333 45.8889C136.003 45.125 134.663 44.7324 134.663 42.8863C134.673 42.5362 134.753 42.1967 134.893 41.8784C135.033 41.5601 135.223 41.2842 135.463 41.0508C135.703 40.8174 135.983 40.637 136.293 40.5203C136.603 40.4036 136.923 40.3505 137.253 40.3718H137.393C138.713 40.3718 139.903 41.3691 139.903 42.7166C139.903 42.7908 139.903 42.8651 139.873 42.9287C139.853 42.9924 139.813 43.0561 139.763 43.1091C139.713 43.1622 139.663 43.2046 139.593 43.2258C139.523 43.247 139.463 43.2683 139.393 43.2577C139.253 43.2577 139.123 43.2046 139.013 43.1091C138.913 43.0136 138.843 42.8757 138.823 42.7272C138.773 42.3558 138.593 42.0163 138.313 41.7829C138.033 41.5495 137.683 41.4434 137.333 41.4752H137.213C137.023 41.454 136.833 41.4752 136.663 41.5389C136.483 41.6025 136.323 41.698 136.173 41.8253C136.033 41.9526 135.913 42.1118 135.833 42.2922C135.753 42.4725 135.703 42.6635 135.693 42.8651C135.693 43.9261 136.553 44.2762 137.293 44.6688C138.673 45.4539 139.983 45.9313 139.983 47.926C140.003 49.613 139.023 50.6634 137.363 50.6634L137.383 50.6952Z" fill="#FDFDFD"/>
<path id="Vector_21" d="M155.383 50.6952H155.263C153.843 50.6952 152.523 49.7297 152.523 47.9791C152.523 47.8305 152.583 47.6926 152.673 47.5865C152.773 47.4804 152.903 47.4273 153.043 47.4273C153.183 47.4273 153.313 47.491 153.413 47.5865C153.513 47.6926 153.563 47.8305 153.563 47.9791C153.563 48.2019 153.613 48.4247 153.703 48.6263C153.793 48.8279 153.923 49.0188 154.083 49.1674C154.243 49.3159 154.433 49.4326 154.633 49.4963C154.833 49.5599 155.053 49.5918 155.263 49.5599H155.403C155.613 49.5918 155.833 49.5705 156.033 49.5069C156.233 49.4326 156.423 49.3159 156.573 49.1568C156.723 48.9976 156.843 48.8066 156.913 48.5944C156.983 48.3822 157.003 48.1488 156.973 47.926C156.973 46.7271 156.183 46.3876 155.333 45.8889C154.003 45.125 152.663 44.7324 152.663 42.8863C152.673 42.5362 152.753 42.1967 152.893 41.8784C153.033 41.5601 153.223 41.2842 153.463 41.0508C153.703 40.8174 153.983 40.637 154.293 40.5203C154.603 40.4036 154.923 40.3505 155.253 40.3718H155.393C156.723 40.3718 157.903 41.3691 157.903 42.7166C157.903 42.7908 157.903 42.8651 157.873 42.9287C157.853 42.9924 157.813 43.0561 157.763 43.1091C157.713 43.1622 157.663 43.2046 157.593 43.2258C157.523 43.247 157.463 43.2683 157.393 43.2577C157.253 43.2577 157.123 43.2046 157.013 43.1091C156.913 43.0136 156.843 42.8757 156.823 42.7272C156.773 42.3558 156.593 42.0163 156.313 41.7829C156.033 41.5495 155.683 41.4434 155.333 41.4752H155.213C155.023 41.454 154.833 41.4752 154.663 41.5389C154.483 41.6025 154.323 41.698 154.173 41.8253C154.033 41.9526 153.913 42.1118 153.833 42.2922C153.753 42.4725 153.703 42.6635 153.693 42.8651C153.693 43.9261 154.553 44.2762 155.293 44.6688C156.673 45.4539 157.983 45.9313 157.983 47.926C158.003 49.613 157.023 50.6634 155.363 50.6634L155.383 50.6952Z" fill="#FDFDFD"/>
<path id="Vector_22" d="M165.973 50.6945H165.833C165.493 50.6945 165.143 50.6203 164.833 50.4823C164.513 50.3444 164.223 50.1322 163.983 49.8776C163.743 49.6229 163.543 49.3152 163.413 48.9757C163.283 48.6362 163.213 48.2755 163.213 47.9041V43.1509C163.213 42.7901 163.283 42.4188 163.413 42.0899C163.543 41.7504 163.733 41.4427 163.983 41.1881C164.223 40.9334 164.513 40.7212 164.833 40.5833C165.153 40.4454 165.493 40.3711 165.833 40.3711H165.973C166.663 40.3711 167.333 40.6682 167.823 41.1881C168.313 41.7079 168.583 42.4188 168.583 43.1509V47.9041C168.583 48.2649 168.523 48.6362 168.393 48.9757C168.263 49.3152 168.073 49.6229 167.833 49.8776C167.593 50.1322 167.303 50.3444 166.983 50.4823C166.663 50.6203 166.323 50.6945 165.983 50.6945H165.973ZM167.533 43.1721C167.533 42.9493 167.493 42.7371 167.413 42.5355C167.333 42.3339 167.223 42.1429 167.073 41.9944C166.923 41.8353 166.753 41.7186 166.563 41.6337C166.373 41.5488 166.163 41.5064 165.963 41.5064H165.823C165.403 41.5064 165.013 41.6761 164.713 41.9838C164.423 42.2915 164.253 42.7159 164.243 43.1615V47.9147C164.243 48.1375 164.273 48.3603 164.353 48.5619C164.433 48.7635 164.543 48.9545 164.693 49.1136C164.843 49.2728 165.013 49.4001 165.213 49.485C165.403 49.5699 165.613 49.6123 165.823 49.6123H165.963C166.173 49.6123 166.373 49.5699 166.563 49.485C166.753 49.4001 166.923 49.2728 167.073 49.1243C167.223 48.9651 167.333 48.7847 167.413 48.5832C167.493 48.3816 167.533 48.1588 167.533 47.9466V43.1827V43.1721Z" fill="#FDFDFD"/>
<path id="Vector_23" d="M178.613 50.6089H174.843C174.703 50.6089 174.583 50.5347 174.483 50.4392C174.383 50.3331 174.333 50.1951 174.313 50.0572V40.9433C174.313 40.7948 174.373 40.6569 174.463 40.5508C174.563 40.4447 174.693 40.3916 174.833 40.3916C174.973 40.3916 175.103 40.4553 175.203 40.5508C175.303 40.6569 175.353 40.7948 175.353 40.9433V49.5055H178.593C178.733 49.5055 178.863 49.5692 178.963 49.6646C179.063 49.7707 179.113 49.9087 179.113 50.0572C179.113 50.2058 179.053 50.3437 178.963 50.4498C178.863 50.5559 178.733 50.6089 178.593 50.6089H178.613Z" fill="#FDFDFD"/>
<path id="Vector_24" d="M187.013 50.6945H186.873C186.523 50.6945 186.183 50.6202 185.863 50.4823C185.543 50.3443 185.253 50.1428 185.013 49.8775C184.773 49.6229 184.573 49.3152 184.443 48.9757C184.313 48.6361 184.243 48.2754 184.243 47.9041V40.9334C184.243 40.7848 184.303 40.6469 184.393 40.5408C184.493 40.4347 184.623 40.3817 184.763 40.3817C184.903 40.3817 185.033 40.4453 185.133 40.5408C185.233 40.6469 185.283 40.7848 185.283 40.9334V47.9041C185.283 48.1269 185.313 48.3497 185.393 48.5513C185.473 48.7529 185.583 48.9438 185.733 49.103C185.883 49.2621 186.053 49.3895 186.243 49.4743C186.433 49.5592 186.643 49.6016 186.853 49.6016H186.993C187.203 49.6016 187.403 49.5592 187.593 49.4743C187.783 49.3895 187.953 49.2621 188.103 49.1136C188.253 48.9544 188.363 48.7741 188.443 48.5725C188.523 48.3709 188.563 48.1481 188.563 47.9359V40.9334C188.563 40.7848 188.613 40.6469 188.713 40.5408C188.813 40.4347 188.943 40.3817 189.083 40.3817C189.223 40.3817 189.353 40.4453 189.453 40.5408C189.553 40.6469 189.603 40.7848 189.603 40.9334V47.9041C189.603 48.2648 189.543 48.6361 189.413 48.9757C189.283 49.3152 189.093 49.6229 188.843 49.8775C188.603 50.1321 188.313 50.3443 187.993 50.4823C187.673 50.6202 187.333 50.6945 186.993 50.6945H187.013Z" fill="#FDFDFD"/>
<path id="Vector_25" d="M199.143 41.58H197.623V50.1422C197.623 50.2907 197.563 50.4286 197.473 50.5347C197.373 50.6408 197.243 50.6939 197.103 50.6939C196.963 50.6939 196.833 50.6302 196.733 50.5347C196.633 50.4286 196.583 50.2907 196.583 50.1422V41.58H195.063C194.923 41.58 194.793 41.5163 194.693 41.4208C194.593 41.3147 194.543 41.1768 194.543 41.0283C194.543 40.8797 194.603 40.7418 194.693 40.6357C194.793 40.5296 194.923 40.4766 195.063 40.4766H199.153C199.293 40.4766 199.423 40.5402 199.523 40.6357C199.623 40.7418 199.673 40.8797 199.673 41.0283C199.673 41.1768 199.623 41.3147 199.523 41.4208C199.423 41.5269 199.293 41.58 199.153 41.58H199.143Z" fill="#FDFDFD"/>
<path id="Vector_26" d="M205.233 50.6946C205.163 50.6946 205.093 50.6947 205.033 50.6628C204.963 50.6416 204.913 50.5992 204.863 50.5461C204.813 50.4931 204.773 50.4294 204.753 50.3657C204.733 50.3021 204.713 50.2278 204.713 50.1535V40.9442C204.713 40.8699 204.713 40.785 204.733 40.7107C204.753 40.6365 204.793 40.5728 204.843 40.5092C204.893 40.4561 204.953 40.4031 205.023 40.3712C205.093 40.3394 205.163 40.3182 205.233 40.3182C205.303 40.3182 205.383 40.3394 205.443 40.3712C205.513 40.4031 205.573 40.4455 205.623 40.5092C205.673 40.5622 205.713 40.6365 205.733 40.7107C205.753 40.785 205.763 40.8593 205.753 40.9442V50.1535C205.753 50.2278 205.753 50.3021 205.713 50.3657C205.683 50.4294 205.653 50.4931 205.603 50.5461C205.553 50.5992 205.493 50.6416 205.433 50.6628C205.373 50.6947 205.303 50.7053 205.233 50.6946Z" fill="#FDFDFD"/>
<path id="Vector_27" d="M214.384 50.6945H214.244C213.904 50.6945 213.564 50.6202 213.244 50.4823C212.924 50.3443 212.634 50.1321 212.394 49.8775C212.154 49.6229 211.954 49.3152 211.824 48.9757C211.694 48.6361 211.624 48.2754 211.624 47.9147V43.1614C211.624 42.8007 211.694 42.4294 211.824 42.1005C211.954 41.7609 212.154 41.4533 212.394 41.1986C212.634 40.944 212.924 40.7318 213.244 40.5938C213.564 40.4559 213.904 40.3817 214.244 40.3817H214.384C214.724 40.3817 215.064 40.4559 215.384 40.5938C215.704 40.7318 215.994 40.9334 216.234 41.1986C216.474 41.4533 216.664 41.7609 216.804 42.1005C216.934 42.44 217.004 42.8007 217.004 43.1614V47.9147C217.004 48.286 216.934 48.6468 216.804 48.9863C216.674 49.3258 216.484 49.6335 216.234 49.8881C215.994 50.1428 215.704 50.3549 215.384 50.4929C215.064 50.6308 214.724 50.7051 214.374 50.7051L214.384 50.6945ZM215.954 43.1721C215.954 42.9492 215.914 42.737 215.834 42.5355C215.754 42.3339 215.644 42.1429 215.494 41.9944C215.354 41.8352 215.174 41.7185 214.984 41.6336C214.794 41.5487 214.594 41.5063 214.384 41.5063H214.244C213.824 41.5063 213.434 41.6761 213.134 41.9837C212.844 42.2914 212.674 42.7158 212.664 43.1614V47.9147C212.664 48.1375 212.704 48.3603 212.774 48.5619C212.854 48.7635 212.964 48.9544 213.114 49.1136C213.264 49.2727 213.434 49.4001 213.634 49.4849C213.824 49.5698 214.034 49.6123 214.244 49.6123H214.384C214.594 49.6123 214.794 49.5698 214.984 49.4849C215.174 49.4001 215.344 49.2727 215.494 49.1242C215.644 48.9651 215.754 48.7847 215.834 48.5831C215.914 48.3815 215.954 48.1587 215.954 47.9465V43.1827V43.1721Z" fill="#FDFDFD"/>
<path id="Vector_28" d="M227.513 50.6946C227.353 50.7159 227.203 50.6734 227.073 50.5779C226.943 50.4825 226.843 50.3551 226.803 50.196L223.793 42.9919V50.196C223.793 50.3445 223.733 50.4825 223.643 50.5886C223.543 50.6947 223.413 50.7477 223.273 50.7477C223.133 50.7477 223.003 50.684 222.903 50.5886C222.803 50.4825 222.753 50.3445 222.753 50.196V40.9548C222.753 40.8699 222.773 40.785 222.803 40.7107C222.833 40.6365 222.883 40.5622 222.943 40.5092C223.003 40.4561 223.073 40.4137 223.143 40.3818C223.223 40.3606 223.293 40.35 223.373 40.35C223.523 40.3288 223.673 40.3712 223.803 40.4561C223.933 40.541 224.033 40.6683 224.083 40.8168L227.083 48.0846V40.8805C227.083 40.8062 227.093 40.7214 227.123 40.6577C227.153 40.5834 227.193 40.5198 227.243 40.4667C227.293 40.4137 227.363 40.3712 227.433 40.35C227.503 40.3288 227.573 40.3182 227.643 40.3182C227.713 40.3182 227.783 40.3288 227.843 40.3606C227.903 40.3924 227.963 40.4349 228.013 40.4773C228.063 40.5304 228.103 40.594 228.123 40.6577C228.143 40.7214 228.153 40.7956 228.153 40.8699V50.0262C228.153 50.1111 228.153 50.2066 228.123 50.2915C228.093 50.3764 228.053 50.4506 227.993 50.5143C227.933 50.5779 227.863 50.6204 227.783 50.6522C227.703 50.684 227.623 50.6947 227.543 50.684L227.513 50.6946Z" fill="#FDFDFD"/>
<path id="Vector_29" d="M236.363 50.6952H236.243C234.823 50.6952 233.503 49.7297 233.503 47.9791C233.503 47.8305 233.553 47.6926 233.653 47.5865C233.753 47.4804 233.883 47.4273 234.023 47.4273C234.163 47.4273 234.293 47.491 234.393 47.5865C234.493 47.6926 234.543 47.8305 234.543 47.9791C234.543 48.2019 234.593 48.4247 234.683 48.6263C234.773 48.8279 234.903 49.0188 235.063 49.1674C235.223 49.3159 235.413 49.4326 235.613 49.4963C235.813 49.5599 236.033 49.5918 236.243 49.5599H236.383C236.593 49.5918 236.803 49.5705 237.013 49.5069C237.213 49.4326 237.403 49.3159 237.553 49.1568C237.703 48.9976 237.823 48.8066 237.883 48.5944C237.953 48.3822 237.973 48.1488 237.943 47.926C237.943 46.7271 237.163 46.3876 236.303 45.8889C234.973 45.125 233.633 44.7324 233.633 42.8863C233.643 42.5362 233.723 42.1967 233.853 41.8784C233.993 41.5601 234.183 41.2842 234.423 41.0508C234.663 40.8174 234.953 40.637 235.253 40.5203C235.563 40.4036 235.883 40.3505 236.213 40.3718H236.353C237.673 40.3718 238.863 41.3691 238.863 42.7166C238.863 42.7908 238.863 42.8651 238.833 42.9287C238.813 42.9924 238.773 43.0561 238.723 43.1091C238.673 43.1622 238.623 43.2046 238.553 43.2258C238.493 43.2577 238.423 43.2683 238.353 43.2577C238.213 43.2577 238.083 43.2046 237.973 43.1091C237.873 43.0136 237.803 42.8757 237.783 42.7272C237.733 42.3558 237.553 42.0163 237.273 41.7829C236.993 41.5495 236.643 41.4434 236.293 41.4752H236.173C235.983 41.454 235.793 41.4752 235.623 41.5389C235.443 41.6025 235.283 41.698 235.133 41.8253C234.993 41.9526 234.873 42.1118 234.793 42.2922C234.713 42.4725 234.663 42.6635 234.653 42.8651C234.653 43.9261 235.503 44.2762 236.253 44.6688C237.633 45.4539 238.943 45.9313 238.943 47.926C238.963 49.613 237.983 50.6634 236.323 50.6634L236.363 50.6952Z" fill="#FDFDFD"/>
<path id="Vector_30" d="M47.3835 0.0421753C47.5135 0.0950712 47.6335 0.179705 47.7335 0.285497C47.6335 0.179705 47.5235 0.0950712 47.3835 0.0421753Z" fill="#FFAB4D"/>
<path id="Vector_31" d="M47.9235 0.806641C47.9235 0.923349 47.9235 1.05067 47.8735 1.16738C47.8335 1.28409 47.7735 1.39018 47.6935 1.47506L46.3135 2.93923V49.2302H47.1235C47.2335 49.2302 47.3335 49.2514 47.4335 49.2938C47.5335 49.3363 47.6235 49.3999 47.6935 49.4742C47.7635 49.5485 47.8235 49.644 47.8635 49.7501C47.9035 49.8562 47.9235 49.9623 47.9235 50.079V0.85969C47.9235 0.85969 47.9235 0.82786 47.9235 0.806641Z" fill="#EE7219"/>
<path id="Vector_32" d="M1.61348 48.0105V2.9291L22.8235 25.4751L23.9535 24.2762L2.75348 1.70896H0.813485C0.703485 1.70896 0.603485 1.68774 0.503485 1.6453C0.403485 1.60286 0.313485 1.5392 0.243485 1.46493C0.163485 1.39066 0.113485 1.29517 0.0634847 1.18908C0.0234847 1.08298 0.00348469 0.976877 0.00348469 0.860168V50.1749C-0.00651531 50.0476 0.00348469 49.9203 0.0534847 49.8036C0.0934847 49.6869 0.153485 49.5808 0.243485 49.4853L1.62348 48.0105H1.61348Z" fill="#EE7219"/>
<path id="Vector_33" d="M0.063418 50.3964C0.033418 50.3221 0.013418 50.2372 0.00341797 50.1523C0.023418 50.3221 0.083418 50.4813 0.183418 50.6086C0.283418 50.7359 0.423418 50.8314 0.573418 50.8844C0.463418 50.8526 0.353418 50.7889 0.273418 50.7041C0.183418 50.6192 0.113418 50.5131 0.073418 50.3964H0.063418Z" fill="#FFAB4D"/>
<path id="Vector_34" d="M0.583496 50.8857C0.653496 50.9065 0.733496 50.9273 0.813496 50.9273C0.733496 50.9273 0.663496 50.9065 0.583496 50.8857Z" fill="#FFAB4D"/>
<path id="Vector_35" d="M47.1335 49.2193H2.76353L46.3235 2.92833L47.7035 1.46417C47.7835 1.37929 47.8435 1.27319 47.8835 1.15648C47.9235 1.03977 47.9335 0.923061 47.9335 0.795742C47.9335 0.774522 47.9335 0.753302 47.9335 0.732083C47.9335 0.657813 47.9135 0.594154 47.8835 0.519885C47.8635 0.445616 47.8335 0.381956 47.7935 0.318297V0.275857C47.7035 0.159148 47.5835 0.0742693 47.4535 0.0318297H47.4035C47.3335 0.0106099 47.2635 0 47.1935 0H0.723535C0.653535 0 0.573535 0.0318297 0.513535 0.0530495C0.443535 0.0848791 0.383535 0.127319 0.333535 0.169758L0.283535 0.201588C0.283535 0.201588 0.193535 0.297077 0.163535 0.350126C0.153535 0.371346 0.143535 0.392566 0.133535 0.413786C0.103535 0.456225 0.0835347 0.498665 0.0635347 0.551714V0.636594C0.0635347 0.636594 0.0635347 0.721473 0.0635347 0.763912C0.0635347 0.785132 0.0635347 0.816962 0.0635347 0.838182C0.0635347 1.05038 0.143535 1.26258 0.283535 1.42173C0.423535 1.58087 0.613535 1.67636 0.823535 1.68697H45.1935L23.9735 24.233L22.8435 25.4319L1.62353 48.0098L0.253535 49.4633C0.173535 49.5482 0.103535 49.6649 0.0635347 49.7816C0.0235347 49.8983 0.00353467 50.0256 0.0135347 50.153C0.0235347 50.3227 0.0935347 50.4819 0.193535 50.6092C0.293535 50.7365 0.433535 50.832 0.583535 50.885C0.653535 50.9063 0.733535 50.9275 0.813535 50.9275H47.1435C47.3435 50.9063 47.5335 50.8108 47.6735 50.6516C47.8135 50.4925 47.8835 50.2909 47.8835 50.0681C47.8835 49.8453 47.8035 49.6437 47.6735 49.4845C47.5335 49.3254 47.3435 49.2299 47.1435 49.2087H47.1335V49.2193Z" fill="#FDFDFD"/>
</g>
</g>
</g>
</g>
</g>
</svg>
