<svg width="241" height="54" viewBox="0 0 241 54" fill="none" xmlns="http://www.w3.org/2000/svg">
<g id="06.Nav Bar" clip-path="url(#clip0_394_46)">
<g id="Nav Bar">
<g id="Group">
<g id="Group_2">
<path id="Vector" d="M71.4635 33.8157H64.1735C63.9935 33.8157 63.8135 33.7713 63.6535 33.6936C63.4835 33.616 63.3335 33.505 63.2135 33.3607C63.0835 33.2164 62.9935 33.05 62.9235 32.8613C62.8635 32.6726 62.8335 32.4729 62.8335 32.2731C62.8335 32.0289 62.8835 31.7959 62.9835 31.5739L69.3835 17.1243H64.2935C63.9735 17.1243 63.6735 16.98 63.4435 16.7358C63.2235 16.4806 63.0935 16.1476 63.0935 15.7925C63.0935 15.4374 63.2235 15.1044 63.4435 14.8492C63.6635 14.5939 63.9735 14.4607 64.2935 14.4607H71.1235C71.2935 14.4385 71.4735 14.4607 71.6435 14.5162C71.8135 14.5717 71.9635 14.6716 72.0935 14.8048C72.2235 14.938 72.3335 15.0933 72.4035 15.2709C72.4735 15.4485 72.5135 15.6482 72.5135 15.8369C72.4935 16.1587 72.4135 16.4695 72.2835 16.758L65.9235 31.1633H71.4435C71.7635 31.1633 72.0635 31.3076 72.2935 31.5517C72.5135 31.807 72.6435 32.1399 72.6435 32.4951C72.6435 32.8502 72.5135 33.1831 72.2935 33.4384C72.0735 33.6936 71.7635 33.8268 71.4435 33.8268L71.4635 33.8157Z" fill="#0E2138"/>
<path id="Vector_2" d="M82.8136 27.6785H77.4636C77.3036 27.6896 77.1336 27.6674 76.9836 27.6008C76.8336 27.5342 76.6836 27.4454 76.5636 27.3234C76.4436 27.2013 76.3436 27.0459 76.2836 26.8794C76.2236 26.713 76.1836 26.5354 76.1836 26.3467C76.1836 26.1581 76.2136 25.9805 76.2836 25.814C76.3536 25.6476 76.4436 25.4922 76.5636 25.3701C76.6836 25.248 76.8236 25.1482 76.9836 25.0927C77.1336 25.0261 77.3036 25.0039 77.4636 25.015H82.8136C83.1136 25.0372 83.4036 25.1925 83.6036 25.4367C83.8036 25.6809 83.9236 26.0027 83.9236 26.3467C83.9236 26.6908 83.8036 27.0126 83.6036 27.2568C83.4036 27.5009 83.1136 27.6563 82.8136 27.6785Z" fill="#0E2138"/>
<path id="Vector_3" d="M100.334 33.9822C100.174 33.9822 100.014 33.96 99.8635 33.8934C99.7135 33.8268 99.5735 33.7269 99.4635 33.6049C99.3535 33.4828 99.2635 33.3274 99.2035 33.1609C99.1435 32.9945 99.1135 32.8169 99.1235 32.6393V20.7533L96.4035 27.7673C96.2835 28.0337 96.1035 28.2556 95.8735 28.3999C95.6435 28.5442 95.3835 28.6218 95.1135 28.6107C94.8535 28.6107 94.6035 28.5442 94.3835 28.3888C94.1635 28.2445 93.9835 28.0226 93.8735 27.7673L91.0435 20.7533V32.6393C91.0235 32.9834 90.8835 33.3052 90.6635 33.5383C90.4435 33.7713 90.1435 33.9045 89.8335 33.9045C89.5235 33.9045 89.2335 33.7713 89.0035 33.5383C88.7835 33.3052 88.6435 32.9834 88.6235 32.6393V15.626C88.6335 15.2709 88.7635 14.938 88.9935 14.6938C89.2235 14.4496 89.5235 14.2943 89.8335 14.2832H90.1535C90.4035 14.2499 90.6635 14.3165 90.8835 14.4496C91.1035 14.5828 91.2835 14.8048 91.3935 15.06L95.1235 24.3158L98.8035 15.06C98.8935 14.7937 99.0735 14.5717 99.2935 14.4275C99.5135 14.2832 99.7735 14.2388 100.034 14.2832H100.324C100.644 14.2943 100.944 14.4386 101.164 14.6938C101.384 14.938 101.524 15.282 101.534 15.626V32.6393C101.534 32.8169 101.514 32.9945 101.454 33.1609C101.394 33.3274 101.304 33.4828 101.194 33.6049C101.084 33.7269 100.944 33.8268 100.794 33.8934C100.644 33.96 100.484 33.9822 100.324 33.9822H100.334Z" fill="#0E2138"/>
<path id="Vector_4" d="M117.084 33.9822C116.824 33.9822 116.564 33.8823 116.354 33.7047C116.144 33.5272 115.994 33.283 115.924 32.9945L114.894 29.2766H109.294L108.284 32.9723C108.214 33.2608 108.054 33.505 107.844 33.6825C107.634 33.8601 107.374 33.9489 107.104 33.9489C106.944 33.96 106.784 33.9489 106.634 33.8934C106.484 33.8379 106.344 33.7491 106.234 33.6271C106.114 33.505 106.024 33.3607 105.964 33.2053C105.904 33.05 105.864 32.8724 105.864 32.6948C105.864 32.5394 105.884 32.3952 105.914 32.2398L110.704 15.3153C110.804 14.9934 110.994 14.7271 111.244 14.5384C111.494 14.3498 111.794 14.2499 112.094 14.261C112.404 14.2388 112.704 14.3387 112.954 14.5273C113.204 14.716 113.394 14.9934 113.484 15.3264L118.274 32.2842C118.304 32.4174 118.324 32.5616 118.324 32.7059C118.324 32.8835 118.294 33.0611 118.234 33.2164C118.174 33.3829 118.084 33.5272 117.964 33.6493C117.844 33.7713 117.714 33.8601 117.554 33.9156C117.404 33.9711 117.244 33.9933 117.084 33.9822ZM112.094 19.2329L110.054 26.6353H114.134L112.094 19.2329Z" fill="#0E2138"/>
<path id="Vector_5" d="M131.534 33.9822H131.254C130.944 33.9822 130.654 33.8601 130.404 33.6604C130.164 33.4495 129.984 33.172 129.894 32.8391L125.084 20.7533V32.6393C125.094 32.8169 125.074 32.9945 125.014 33.1609C124.954 33.3274 124.874 33.4828 124.764 33.6049C124.654 33.7269 124.514 33.8268 124.364 33.8934C124.214 33.96 124.054 33.9822 123.894 33.9822C123.734 33.9822 123.574 33.96 123.424 33.8934C123.274 33.8268 123.134 33.7269 123.024 33.6049C122.904 33.4828 122.814 33.3274 122.754 33.1609C122.694 32.9945 122.664 32.8169 122.664 32.6393V15.6815C122.664 15.4929 122.694 15.3042 122.754 15.1377C122.814 14.9602 122.914 14.8048 123.034 14.6716C123.154 14.5384 123.294 14.4386 123.454 14.372C123.614 14.3054 123.784 14.2721 123.944 14.2832H124.224C124.504 14.261 124.784 14.3387 125.024 14.5162C125.254 14.6938 125.434 14.9602 125.514 15.2598L130.324 27.3345V15.626C130.314 15.4485 130.334 15.2709 130.394 15.1044C130.454 14.938 130.534 14.7826 130.644 14.6605C130.754 14.5384 130.894 14.4386 131.044 14.372C131.194 14.3054 131.354 14.2832 131.514 14.2832C131.674 14.2832 131.834 14.3054 131.994 14.372C132.144 14.4386 132.284 14.5384 132.404 14.6605C132.524 14.7826 132.614 14.938 132.674 15.1044C132.734 15.2709 132.764 15.4485 132.764 15.626V32.6393C132.764 32.9945 132.624 33.3274 132.394 33.5827C132.164 33.8379 131.864 33.9822 131.544 33.9822H131.534Z" fill="#0E2138"/>
<path id="Vector_6" d="M148.273 33.9822C148.013 33.9822 147.753 33.8823 147.543 33.7047C147.333 33.5272 147.183 33.283 147.113 32.9945L146.093 29.2766H140.493L139.483 32.9723C139.413 33.2608 139.253 33.505 139.043 33.6825C138.833 33.8601 138.563 33.9489 138.303 33.9489C138.143 33.96 137.983 33.9489 137.843 33.8823C137.693 33.8268 137.553 33.738 137.443 33.616C137.323 33.4939 137.233 33.3496 137.173 33.1942C137.113 33.0389 137.083 32.8613 137.083 32.6837C137.083 32.5284 137.103 32.3841 137.133 32.2287L141.923 15.3042C142.023 14.9934 142.213 14.7271 142.453 14.5384C142.693 14.3498 142.983 14.2499 143.283 14.261C143.583 14.2388 143.883 14.3387 144.133 14.5273C144.383 14.716 144.573 14.9934 144.663 15.3264L149.453 32.2842C149.483 32.4174 149.493 32.5616 149.503 32.7059C149.503 32.8835 149.463 33.05 149.403 33.2053C149.343 33.3607 149.253 33.505 149.133 33.616C149.023 33.738 148.884 33.8268 148.743 33.8823C148.594 33.9378 148.443 33.9711 148.283 33.96L148.273 33.9822ZM143.273 19.2329L141.223 26.6575H145.303L143.263 19.2329H143.273Z" fill="#0E2138"/>
<path id="Vector_7" d="M158.693 33.9822H158.443C157.803 33.9822 157.163 33.8601 156.573 33.5938C155.973 33.3274 155.433 32.939 154.973 32.4285C154.513 31.9291 154.153 31.3298 153.903 30.675C153.653 30.0202 153.523 29.3099 153.523 28.5997V19.6324C153.523 18.9222 153.653 18.2119 153.903 17.5571C154.153 16.9023 154.513 16.303 154.973 15.8147C155.433 15.3153 155.973 14.9269 156.563 14.6605C157.163 14.3942 157.793 14.2721 158.433 14.2832H158.683C161.303 14.2832 163.353 16.2475 163.573 18.678V18.8112C163.573 18.9777 163.543 19.1552 163.483 19.3106C163.423 19.466 163.333 19.6102 163.223 19.7212C163.113 19.8433 162.983 19.9321 162.833 19.9876C162.693 20.0431 162.533 20.0764 162.383 20.0653C162.083 20.0653 161.793 19.9543 161.573 19.7212C161.353 19.4993 161.213 19.1885 161.193 18.8556C161.073 17.6015 159.913 16.9245 158.673 16.9245H158.423C158.103 16.9245 157.783 16.98 157.483 17.1132C157.183 17.2464 156.913 17.4461 156.673 17.6903C156.443 17.9455 156.253 18.2341 156.133 18.567C156.003 18.9 155.943 19.2551 155.933 19.6102V28.5886C155.933 28.9548 156.003 29.3099 156.123 29.6429C156.253 29.9758 156.433 30.2755 156.663 30.5307C156.893 30.786 157.173 30.9857 157.473 31.1189C157.773 31.2521 158.093 31.3187 158.423 31.3076H158.673C159.333 31.2965 159.973 30.9968 160.433 30.4752C160.903 29.9536 161.163 29.2433 161.173 28.5109V25.6254H159.123C158.963 25.6254 158.803 25.5921 158.653 25.5255C158.503 25.4589 158.373 25.359 158.253 25.2258C158.143 25.0927 158.053 24.9484 158.003 24.7708C157.953 24.6044 157.923 24.4268 157.933 24.2492C157.933 24.0827 157.963 23.9052 158.023 23.7498C158.083 23.5944 158.173 23.4502 158.283 23.3392C158.393 23.2171 158.523 23.1283 158.673 23.0728C158.813 23.0173 158.973 22.984 159.123 22.9951H162.353C162.673 22.9951 162.973 23.1394 163.203 23.3836C163.433 23.6277 163.573 23.9607 163.583 24.3158V28.522C163.583 29.2433 163.463 29.9536 163.213 30.6195C162.963 31.2854 162.603 31.8847 162.143 32.3952C161.683 32.9057 161.143 33.3052 160.543 33.5827C159.943 33.8601 159.303 33.9933 158.663 33.9933L158.693 33.9822Z" fill="#0E2138"/>
<path id="Vector_8" d="M177.784 33.8157H170.124C169.804 33.8046 169.504 33.6493 169.284 33.4051C169.064 33.1498 168.934 32.8169 168.914 32.4618V15.7925C168.924 15.4374 169.054 15.1044 169.284 14.8492C169.504 14.5939 169.814 14.4497 170.124 14.4386H177.784C178.104 14.4386 178.404 14.5828 178.634 14.827C178.864 15.0711 178.984 15.4152 178.984 15.7703C178.984 16.1255 178.854 16.4584 178.634 16.7137C178.414 16.9689 178.104 17.1021 177.784 17.1021H171.334V22.5068H175.724C175.884 22.4957 176.044 22.5179 176.194 22.5845C176.344 22.6511 176.484 22.7399 176.594 22.862C176.704 22.984 176.794 23.1394 176.854 23.3059C176.914 23.4724 176.934 23.6499 176.934 23.8275C176.934 24.0051 176.914 24.1826 176.854 24.3491C176.794 24.5156 176.704 24.6709 176.594 24.793C176.484 24.9151 176.344 25.015 176.194 25.0816C176.044 25.1482 175.884 25.1815 175.724 25.1704H171.334V31.1522H177.784C178.104 31.1522 178.404 31.2965 178.634 31.5406C178.864 31.7959 178.984 32.1288 178.984 32.484C178.984 32.8391 178.854 33.172 178.634 33.4273C178.414 33.6826 178.104 33.8157 177.784 33.8157Z" fill="#0E2138"/>
<path id="Vector_9" d="M195.044 33.9822C194.884 33.9822 194.724 33.96 194.574 33.8934C194.424 33.8268 194.284 33.7269 194.174 33.6049C194.064 33.4828 193.974 33.3274 193.914 33.1609C193.854 32.9945 193.824 32.8169 193.834 32.6393V20.7533L191.114 27.7673C190.994 28.0336 190.814 28.2445 190.584 28.3999C190.354 28.5442 190.094 28.6218 189.834 28.6107C189.574 28.6107 189.324 28.5442 189.104 28.3999C188.884 28.2556 188.704 28.0336 188.594 27.7784L185.774 20.7644V32.6504C185.774 32.828 185.744 33.0056 185.684 33.1609C185.624 33.3274 185.534 33.4717 185.424 33.5938C185.314 33.7158 185.174 33.8157 185.034 33.8823C184.884 33.9489 184.734 33.9822 184.574 33.9822C184.414 33.9822 184.254 33.9489 184.114 33.8823C183.964 33.8157 183.834 33.7158 183.724 33.5938C183.614 33.4717 183.524 33.3163 183.464 33.1609C183.404 32.9945 183.374 32.828 183.374 32.6504V15.6371C183.384 15.282 183.514 14.9491 183.744 14.7049C183.964 14.4607 184.264 14.3054 184.584 14.2943H184.894C185.144 14.2721 185.404 14.3276 185.624 14.4718C185.844 14.6161 186.024 14.827 186.134 15.0822L189.864 24.338L193.544 15.0822C193.644 14.8159 193.814 14.5939 194.044 14.4496C194.264 14.3054 194.534 14.261 194.784 14.3054H195.094C195.414 14.3165 195.714 14.4607 195.934 14.716C196.154 14.9602 196.294 15.3042 196.304 15.6482V32.6615C196.304 32.8391 196.284 33.0167 196.224 33.1831C196.164 33.3496 196.074 33.505 195.964 33.6271C195.854 33.7491 195.714 33.849 195.564 33.9156C195.414 33.9822 195.254 34.0044 195.094 34.0044L195.044 33.9822Z" fill="#0E2138"/>
<path id="Vector_10" d="M210.724 33.8157H203.064C202.744 33.8046 202.444 33.6604 202.214 33.4051C201.994 33.1498 201.854 32.8169 201.844 32.4618V15.7925C201.854 15.4374 201.984 15.1044 202.214 14.8492C202.444 14.5939 202.744 14.4497 203.064 14.4386H210.724C211.044 14.4386 211.344 14.5828 211.574 14.827C211.804 15.0711 211.924 15.4152 211.924 15.7703C211.924 16.1255 211.794 16.4584 211.574 16.7137C211.344 16.9689 211.044 17.1021 210.724 17.1021H204.294V22.5068H208.684C208.844 22.4957 209.004 22.5179 209.154 22.5845C209.304 22.6511 209.444 22.7399 209.554 22.862C209.664 22.984 209.754 23.1394 209.814 23.3059C209.874 23.4724 209.894 23.6499 209.894 23.8275C209.894 24.0051 209.874 24.1826 209.814 24.3491C209.754 24.5156 209.664 24.6709 209.554 24.793C209.444 24.9151 209.304 25.015 209.154 25.0816C209.004 25.1482 208.844 25.1704 208.684 25.1704H204.294V31.1522H210.744C211.064 31.1522 211.364 31.2965 211.594 31.5406C211.814 31.7959 211.944 32.1288 211.944 32.484C211.944 32.8391 211.814 33.172 211.594 33.4273C211.374 33.6826 211.064 33.8157 210.744 33.8157H210.724Z" fill="#0E2138"/>
<path id="Vector_11" d="M225.143 33.9822H224.863C224.553 33.9822 224.253 33.8712 224.013 33.6604C223.763 33.4495 223.583 33.172 223.503 32.8391L218.693 20.7533V32.6393C218.703 32.8169 218.683 32.9945 218.623 33.1609C218.563 33.3274 218.483 33.4828 218.373 33.6049C218.263 33.7269 218.123 33.8268 217.973 33.8934C217.823 33.96 217.663 33.9822 217.503 33.9822C217.343 33.9822 217.183 33.96 217.023 33.8934C216.873 33.8268 216.733 33.7269 216.623 33.6049C216.503 33.4828 216.413 33.3274 216.353 33.1609C216.293 32.9945 216.263 32.8169 216.263 32.6393V15.6815C216.263 15.4929 216.293 15.3042 216.353 15.1377C216.413 14.9602 216.513 14.8048 216.633 14.6716C216.753 14.5384 216.893 14.4386 217.053 14.372C217.213 14.3054 217.383 14.2721 217.543 14.2832H217.843C218.123 14.261 218.403 14.3387 218.643 14.5162C218.873 14.6938 219.053 14.9602 219.133 15.2598L223.943 27.3345V15.626C223.933 15.4485 223.953 15.2709 224.013 15.1044C224.073 14.938 224.153 14.7826 224.263 14.6605C224.373 14.5384 224.513 14.4386 224.663 14.372C224.813 14.3054 224.973 14.2832 225.133 14.2832C225.293 14.2832 225.453 14.3054 225.603 14.372C225.753 14.4386 225.893 14.5384 226.003 14.6605C226.123 14.7826 226.213 14.938 226.273 15.1044C226.333 15.2709 226.363 15.4485 226.363 15.626V32.6393C226.363 32.9945 226.223 33.3385 225.993 33.5827C225.763 33.8379 225.453 33.9711 225.133 33.9822H225.143Z" fill="#0E2138"/>
<path id="Vector_12" d="M238.794 17.1132H236.404V32.6393C236.404 32.8169 236.374 32.9945 236.314 33.1498C236.254 33.3163 236.164 33.4606 236.054 33.5827C235.944 33.7047 235.814 33.8046 235.664 33.8712C235.514 33.9378 235.364 33.9711 235.204 33.9711C235.044 33.9711 234.884 33.9378 234.744 33.8712C234.594 33.8046 234.464 33.7047 234.354 33.5827C234.244 33.4606 234.154 33.3052 234.094 33.1498C234.034 32.9834 234.004 32.8169 234.004 32.6393V17.1132H231.604C231.284 17.1132 230.984 16.9689 230.754 16.7247C230.534 16.4695 230.404 16.1365 230.404 15.7814C230.404 15.4263 230.534 15.0933 230.754 14.8381C230.974 14.5828 231.284 14.4496 231.604 14.4496H238.814C239.134 14.4496 239.434 14.5939 239.664 14.8381C239.894 15.0822 240.014 15.4263 240.014 15.7814C240.014 16.1365 239.884 16.4695 239.664 16.7247C239.444 16.98 239.134 17.1132 238.814 17.1132H238.794Z" fill="#0E2138"/>
<path id="Vector_13" d="M65.8734 52.9376H63.7434C63.6034 52.9376 63.4834 52.86 63.3834 52.7601C63.2834 52.6491 63.2334 52.5048 63.2234 52.3605V42.9383C63.2234 42.7829 63.2934 42.6387 63.3834 42.5388C63.4834 42.4278 63.6134 42.3612 63.7434 42.3612H65.8734C66.2034 42.3501 66.5334 42.4167 66.8434 42.5499C67.1534 42.6831 67.4334 42.8939 67.6734 43.1492C67.9134 43.4155 68.0934 43.7263 68.2134 44.0703C68.3334 44.4143 68.3934 44.7806 68.3834 45.1579C68.4034 45.6129 68.3134 46.0791 68.1234 46.4897C67.9334 46.9003 67.6534 47.2443 67.3034 47.4996C67.6734 47.7438 67.9834 48.0989 68.1934 48.5206C68.4034 48.9423 68.5034 49.4196 68.4934 49.9079V50.03C68.4934 50.4184 68.4234 50.7957 68.2934 51.1509C68.1634 51.506 67.9734 51.8278 67.7234 52.0942C67.4834 52.3605 67.1934 52.5825 66.8734 52.7268C66.5534 52.8711 66.2134 52.9487 65.8734 52.9487V52.9376ZM67.3334 45.1246C67.3434 44.9027 67.3134 44.6918 67.2434 44.492C67.1734 44.2923 67.0634 44.1036 66.9234 43.9482C66.7834 43.7929 66.6234 43.6708 66.4334 43.5931C66.2534 43.5154 66.0534 43.4821 65.8634 43.4932H64.2634V46.867H65.8634C66.0634 46.867 66.2634 46.8115 66.4434 46.7227C66.6234 46.634 66.7934 46.5008 66.9334 46.3343C67.0734 46.1678 67.1734 45.9792 67.2434 45.7683C67.3134 45.5574 67.3434 45.3355 67.3234 45.1135L67.3334 45.1246ZM67.4434 49.8746C67.4434 49.4085 67.2834 48.9534 66.9934 48.6094C66.7034 48.2654 66.3034 48.0656 65.8734 48.0545H64.2734V51.7612H65.8734C66.0834 51.7612 66.2934 51.7169 66.4834 51.6281C66.6734 51.5393 66.8534 51.4061 67.0034 51.2507C67.1534 51.0843 67.2634 50.8956 67.3434 50.6736C67.4234 50.4628 67.4634 50.2297 67.4634 49.9967L67.4434 49.8635V49.8746Z" fill="#0E2138"/>
<path id="Vector_14" d="M76.7934 53.0264H76.6535C76.3135 53.0264 75.9634 52.9487 75.6535 52.8045C75.3335 52.6602 75.0435 52.4493 74.8035 52.1719C74.5635 51.9055 74.3635 51.5837 74.2335 51.2285C74.1035 50.8734 74.0334 50.4961 74.0334 50.1076V42.8162C74.0334 42.6609 74.0934 42.5166 74.1834 42.4056C74.2834 42.2946 74.4135 42.2391 74.5535 42.2391C74.6935 42.2391 74.8234 42.3057 74.9234 42.4056C75.0234 42.5166 75.0734 42.6609 75.0734 42.8162V50.1076C75.0734 50.3407 75.1034 50.5738 75.1834 50.7846C75.2634 50.9955 75.3734 51.1953 75.5234 51.3617C75.6734 51.5282 75.8434 51.6614 76.0334 51.7502C76.2234 51.8389 76.4334 51.8833 76.6434 51.8833H76.7834C76.9934 51.8833 77.1934 51.8389 77.3834 51.7502C77.5734 51.6614 77.7434 51.5282 77.8934 51.3728C78.0334 51.2064 78.1535 51.0177 78.2335 50.8068C78.3135 50.596 78.3534 50.3629 78.3534 50.1409V42.8162C78.3534 42.6609 78.4134 42.5166 78.5034 42.4056C78.5934 42.2946 78.7335 42.2391 78.8735 42.2391C79.0135 42.2391 79.1434 42.3057 79.2434 42.4056C79.3434 42.5166 79.3934 42.6609 79.3934 42.8162V50.1076C79.3934 50.485 79.3334 50.8734 79.2034 51.2285C79.0734 51.5837 78.8834 51.9055 78.6334 52.1719C78.3934 52.4382 78.1034 52.6602 77.7834 52.8045C77.4634 52.9487 77.1234 53.0264 76.7834 53.0264H76.7934Z" fill="#0E2138"/>
<path id="Vector_15" d="M87.6535 53.0264H87.5335C86.1135 53.0264 84.8035 52.0165 84.8035 50.1853C84.8035 50.03 84.8635 49.8857 84.9535 49.7747C85.0535 49.6637 85.1835 49.6082 85.3235 49.6082C85.4635 49.6082 85.5935 49.6748 85.6935 49.7747C85.7935 49.8857 85.8435 50.03 85.8435 50.1853C85.8435 50.4184 85.8935 50.6515 85.9835 50.8623C86.0735 51.0732 86.2035 51.2729 86.3635 51.4283C86.5235 51.5837 86.7135 51.7058 86.9135 51.7724C87.1135 51.8389 87.3335 51.8722 87.5435 51.8389H87.6835C87.8935 51.8722 88.1035 51.85 88.3135 51.7835C88.5135 51.7058 88.7035 51.5837 88.8535 51.4172C89.0035 51.2507 89.1235 51.051 89.1835 50.829C89.2535 50.6071 89.2735 50.3629 89.2435 50.1298C89.2435 48.8758 88.4535 48.5206 87.6035 47.999C86.2835 47.2 84.9435 46.7893 84.9435 44.8583C84.9535 44.492 85.0335 44.1369 85.1735 43.804C85.3135 43.471 85.5035 43.1825 85.7435 42.9383C85.9835 42.6942 86.2635 42.5055 86.5735 42.3834C86.8835 42.2613 87.2035 42.2058 87.5335 42.228H87.6735C89.0035 42.228 90.1835 43.2713 90.1835 44.6807C90.1835 44.7584 90.1835 44.8361 90.1535 44.9027C90.1335 44.9693 90.0935 45.0358 90.0435 45.0913C89.9935 45.1468 89.9435 45.1912 89.8735 45.2134C89.8135 45.2356 89.7435 45.2578 89.6735 45.2467C89.5335 45.2467 89.4035 45.1912 89.2935 45.0913C89.1935 44.9915 89.1235 44.8472 89.1035 44.6918C89.0535 44.3034 88.8735 43.9482 88.5935 43.7041C88.3135 43.4599 87.9635 43.3489 87.6135 43.3822H87.4935C87.3035 43.36 87.1135 43.3822 86.9435 43.4488C86.7635 43.5154 86.6035 43.6153 86.4535 43.7485C86.3135 43.8816 86.1935 44.0481 86.1135 44.2368C86.0335 44.4255 85.9835 44.6252 85.9735 44.8361C85.9735 45.9459 86.8235 46.3121 87.5735 46.7227C88.9535 47.544 90.2735 48.0434 90.2735 50.1298C90.2935 51.8944 89.3135 52.9931 87.6535 52.9931V53.0264Z" fill="#0E2138"/>
<path id="Vector_16" d="M96.3435 53.0264C96.2735 53.0264 96.2035 53.0264 96.1435 52.9931C96.0835 52.9599 96.0235 52.9266 95.9735 52.8711C95.9235 52.8156 95.8835 52.749 95.8635 52.6824C95.8335 52.6158 95.8235 52.5381 95.8235 52.4604V42.8273C95.8235 42.672 95.8835 42.5277 95.9735 42.4167C96.0735 42.3057 96.2035 42.2502 96.3435 42.2502C96.4835 42.2502 96.6135 42.3168 96.7135 42.4167C96.8135 42.5277 96.8635 42.672 96.8635 42.8273V52.4604C96.8635 52.5381 96.8635 52.6158 96.8235 52.6824C96.7935 52.749 96.7635 52.8156 96.7135 52.8711C96.6635 52.9266 96.6035 52.971 96.5435 52.9931C96.4835 53.0153 96.4135 53.0375 96.3435 53.0264Z" fill="#0E2138"/>
<path id="Vector_17" d="M107.723 53.0264C107.573 53.0486 107.413 53.0042 107.283 52.9043C107.153 52.8045 107.053 52.6713 107.013 52.5048L104.003 44.9693V52.5048C104.003 52.6602 103.943 52.8045 103.853 52.9154C103.753 53.0264 103.623 53.0819 103.483 53.0819C103.343 53.0819 103.213 53.0153 103.113 52.9154C103.013 52.8045 102.963 52.6602 102.963 52.5048V42.8384C102.963 42.7496 102.983 42.6609 103.013 42.5832C103.043 42.5055 103.093 42.4278 103.153 42.3723C103.213 42.3168 103.283 42.2724 103.353 42.2391C103.423 42.2169 103.503 42.2058 103.583 42.2058C103.733 42.1836 103.883 42.228 104.013 42.3168C104.143 42.4056 104.243 42.5388 104.293 42.6942L107.283 50.2963V42.7607C107.283 42.6831 107.293 42.6054 107.323 42.5277C107.353 42.4611 107.393 42.3945 107.443 42.339C107.493 42.2835 107.553 42.2391 107.613 42.2169C107.683 42.1836 107.753 42.1725 107.823 42.1725C107.893 42.1725 107.963 42.1725 108.023 42.2169C108.083 42.2502 108.143 42.2835 108.193 42.339C108.243 42.3945 108.283 42.4611 108.303 42.5277C108.323 42.5943 108.333 42.672 108.333 42.7496V52.3273C108.333 52.416 108.333 52.5048 108.303 52.5936C108.273 52.6824 108.233 52.7601 108.173 52.8267C108.113 52.8933 108.053 52.9376 107.973 52.9709C107.893 53.0042 107.813 53.0153 107.733 53.0153L107.723 53.0264Z" fill="#0E2138"/>
<path id="Vector_18" d="M119.113 52.9376H114.793C114.653 52.9376 114.533 52.86 114.433 52.7601C114.333 52.6491 114.283 52.5048 114.273 52.3605V42.9383C114.273 42.7829 114.343 42.6387 114.433 42.5388C114.533 42.4278 114.663 42.3612 114.793 42.3612H119.113C119.253 42.3612 119.383 42.4278 119.483 42.5277C119.583 42.6387 119.633 42.7829 119.633 42.9383C119.633 43.0937 119.573 43.238 119.483 43.3489C119.383 43.4599 119.253 43.5154 119.113 43.5154H115.313V46.867H117.953C118.093 46.867 118.223 46.9336 118.323 47.0335C118.423 47.1445 118.473 47.2887 118.473 47.4441C118.473 47.5995 118.413 47.7438 118.323 47.8547C118.223 47.9657 118.093 48.0212 117.953 48.0212H115.313V51.7502H119.113C119.253 51.7502 119.383 51.8167 119.483 51.9166C119.583 52.0276 119.633 52.1719 119.633 52.3272C119.633 52.4826 119.573 52.6269 119.483 52.7379C119.383 52.8489 119.253 52.9043 119.113 52.9043V52.9376Z" fill="#0E2138"/>
<path id="Vector_19" d="M127.053 53.0264H126.933C125.513 53.0264 124.203 52.0165 124.203 50.1853C124.203 50.03 124.253 49.8857 124.353 49.7747C124.453 49.6637 124.583 49.6082 124.723 49.6082C124.863 49.6082 124.993 49.6748 125.093 49.7747C125.193 49.8857 125.243 50.03 125.243 50.1853C125.243 50.4184 125.293 50.6515 125.383 50.8623C125.473 51.0732 125.603 51.2729 125.763 51.4283C125.923 51.5837 126.113 51.7058 126.313 51.7724C126.513 51.8389 126.733 51.8722 126.943 51.8389H127.083C127.293 51.8722 127.513 51.85 127.713 51.7835C127.913 51.7058 128.103 51.5837 128.253 51.4172C128.403 51.2507 128.523 51.051 128.583 50.829C128.653 50.6071 128.673 50.3629 128.643 50.1298C128.643 48.8758 127.853 48.5206 127.003 47.999C125.673 47.2 124.333 46.7893 124.333 44.8583C124.343 44.492 124.423 44.1369 124.563 43.804C124.703 43.471 124.893 43.1825 125.133 42.9383C125.373 42.6942 125.653 42.5055 125.963 42.3834C126.273 42.2613 126.593 42.2058 126.923 42.228H127.063C128.393 42.228 129.573 43.2713 129.573 44.6807C129.573 44.7584 129.573 44.8361 129.543 44.9027C129.523 44.9693 129.483 45.0358 129.433 45.0913C129.383 45.1468 129.333 45.1912 129.263 45.2134C129.203 45.2467 129.133 45.2578 129.063 45.2467C128.923 45.2467 128.793 45.1912 128.683 45.0913C128.583 44.9915 128.513 44.8472 128.493 44.6918C128.443 44.3034 128.263 43.9482 127.983 43.7041C127.703 43.4599 127.353 43.3489 127.003 43.3822H126.883C126.693 43.36 126.503 43.3822 126.333 43.4488C126.153 43.5154 125.993 43.6153 125.843 43.7485C125.703 43.8816 125.583 44.0481 125.503 44.2368C125.423 44.4255 125.373 44.6252 125.363 44.8361C125.363 45.9459 126.223 46.3121 126.963 46.7227C128.343 47.544 129.653 48.0434 129.653 50.1298C129.693 51.8944 128.693 52.9931 127.033 52.9931L127.053 53.0264Z" fill="#0E2138"/>
<path id="Vector_20" d="M137.383 53.0264H137.263C135.843 53.0264 134.523 52.0165 134.523 50.1853C134.523 50.03 134.583 49.8857 134.673 49.7747C134.773 49.6637 134.903 49.6082 135.043 49.6082C135.183 49.6082 135.313 49.6748 135.413 49.7747C135.513 49.8857 135.563 50.03 135.563 50.1853C135.563 50.4184 135.613 50.6515 135.703 50.8623C135.793 51.0732 135.923 51.2729 136.083 51.4283C136.243 51.5837 136.433 51.7058 136.633 51.7724C136.833 51.8389 137.053 51.8722 137.263 51.8389H137.403C137.613 51.8722 137.833 51.85 138.033 51.7835C138.233 51.7058 138.423 51.5837 138.573 51.4172C138.723 51.2507 138.843 51.051 138.913 50.829C138.983 50.6071 139.003 50.3629 138.973 50.1298C138.973 48.8758 138.183 48.5206 137.333 47.999C136.003 47.2 134.663 46.7893 134.663 44.8583C134.673 44.492 134.753 44.1369 134.893 43.804C135.033 43.471 135.223 43.1825 135.463 42.9383C135.703 42.6942 135.983 42.5055 136.293 42.3834C136.603 42.2613 136.923 42.2058 137.253 42.228H137.393C138.713 42.228 139.903 43.2713 139.903 44.6807C139.903 44.7584 139.903 44.8361 139.873 44.9027C139.853 44.9693 139.813 45.0358 139.763 45.0913C139.713 45.1468 139.663 45.1912 139.593 45.2134C139.523 45.2356 139.463 45.2578 139.393 45.2467C139.253 45.2467 139.123 45.1912 139.013 45.0913C138.913 44.9915 138.843 44.8472 138.823 44.6918C138.773 44.3034 138.593 43.9482 138.313 43.7041C138.033 43.4599 137.683 43.3489 137.333 43.3822H137.213C137.023 43.36 136.833 43.3822 136.663 43.4488C136.483 43.5154 136.323 43.6153 136.173 43.7485C136.033 43.8816 135.913 44.0481 135.833 44.2368C135.753 44.4255 135.703 44.6252 135.693 44.8361C135.693 45.9459 136.553 46.3121 137.293 46.7227C138.673 47.544 139.983 48.0434 139.983 50.1298C140.003 51.8944 139.023 52.9931 137.363 52.9931L137.383 53.0264Z" fill="#0E2138"/>
<path id="Vector_21" d="M155.383 53.0264H155.263C153.843 53.0264 152.523 52.0165 152.523 50.1853C152.523 50.03 152.583 49.8857 152.673 49.7747C152.773 49.6637 152.903 49.6082 153.043 49.6082C153.183 49.6082 153.313 49.6748 153.413 49.7747C153.513 49.8857 153.563 50.03 153.563 50.1853C153.563 50.4184 153.613 50.6515 153.703 50.8623C153.793 51.0732 153.923 51.2729 154.083 51.4283C154.243 51.5837 154.433 51.7058 154.633 51.7724C154.833 51.8389 155.053 51.8722 155.263 51.8389H155.403C155.613 51.8722 155.833 51.85 156.033 51.7835C156.233 51.7058 156.423 51.5837 156.573 51.4172C156.723 51.2507 156.843 51.051 156.913 50.829C156.983 50.6071 157.003 50.3629 156.973 50.1298C156.973 48.8758 156.183 48.5206 155.333 47.999C154.003 47.2 152.663 46.7893 152.663 44.8583C152.673 44.492 152.753 44.1369 152.893 43.804C153.033 43.471 153.223 43.1825 153.463 42.9383C153.703 42.6942 153.983 42.5055 154.293 42.3834C154.603 42.2613 154.923 42.2058 155.253 42.228H155.393C156.723 42.228 157.903 43.2713 157.903 44.6807C157.903 44.7584 157.903 44.8361 157.873 44.9027C157.853 44.9693 157.813 45.0358 157.763 45.0913C157.713 45.1468 157.663 45.1912 157.593 45.2134C157.523 45.2356 157.463 45.2578 157.393 45.2467C157.253 45.2467 157.123 45.1912 157.013 45.0913C156.913 44.9915 156.843 44.8472 156.823 44.6918C156.773 44.3034 156.593 43.9482 156.313 43.7041C156.033 43.4599 155.683 43.3489 155.333 43.3822H155.213C155.023 43.36 154.833 43.3822 154.663 43.4488C154.483 43.5154 154.323 43.6153 154.173 43.7485C154.033 43.8816 153.913 44.0481 153.833 44.2368C153.753 44.4255 153.703 44.6252 153.693 44.8361C153.693 45.9459 154.553 46.3121 155.293 46.7227C156.673 47.544 157.983 48.0434 157.983 50.1298C158.003 51.8944 157.023 52.9931 155.363 52.9931L155.383 53.0264Z" fill="#0E2138"/>
<path id="Vector_22" d="M165.973 53.0264H165.833C165.493 53.0264 165.143 52.9488 164.833 52.8045C164.513 52.6602 164.223 52.4382 163.983 52.1719C163.743 51.9055 163.543 51.5837 163.413 51.2286C163.283 50.8734 163.213 50.4961 163.213 50.1077V45.1357C163.213 44.7584 163.283 44.37 163.413 44.0259C163.543 43.6708 163.733 43.3489 163.983 43.0826C164.223 42.8162 164.513 42.5943 164.833 42.45C165.153 42.3057 165.493 42.228 165.833 42.228H165.973C166.663 42.228 167.333 42.5388 167.823 43.0826C168.313 43.6264 168.583 44.37 168.583 45.1357V50.1077C168.583 50.485 168.523 50.8734 168.393 51.2286C168.263 51.5837 168.073 51.9055 167.833 52.1719C167.593 52.4382 167.303 52.6602 166.983 52.8045C166.663 52.9488 166.323 53.0264 165.983 53.0264H165.973ZM167.533 45.1579C167.533 44.9249 167.493 44.7029 167.413 44.492C167.333 44.2812 167.223 44.0814 167.073 43.926C166.923 43.7596 166.753 43.6375 166.563 43.5487C166.373 43.4599 166.163 43.4155 165.963 43.4155H165.823C165.403 43.4155 165.013 43.5931 164.713 43.9149C164.423 44.2368 164.253 44.6807 164.243 45.1468V50.1187C164.243 50.3518 164.273 50.5849 164.353 50.7957C164.433 51.0066 164.543 51.2064 164.693 51.3728C164.843 51.5393 165.013 51.6725 165.213 51.7613C165.403 51.85 165.613 51.8944 165.823 51.8944H165.963C166.173 51.8944 166.373 51.85 166.563 51.7613C166.753 51.6725 166.923 51.5393 167.073 51.3839C167.223 51.2175 167.333 51.0288 167.413 50.8179C167.493 50.6071 167.533 50.374 167.533 50.152V45.169V45.1579Z" fill="#0E2138"/>
<path id="Vector_23" d="M178.613 52.9377H174.843C174.703 52.9377 174.583 52.86 174.483 52.7601C174.383 52.6491 174.333 52.5048 174.313 52.3606V42.8273C174.313 42.672 174.373 42.5277 174.463 42.4167C174.563 42.3057 174.693 42.2502 174.833 42.2502C174.973 42.2502 175.103 42.3168 175.203 42.4167C175.303 42.5277 175.353 42.672 175.353 42.8273V51.7835H178.593C178.733 51.7835 178.863 51.85 178.963 51.9499C179.063 52.0609 179.113 52.2052 179.113 52.3606C179.113 52.5159 179.053 52.6602 178.963 52.7712C178.863 52.8822 178.733 52.9377 178.593 52.9377H178.613Z" fill="#0E2138"/>
<path id="Vector_24" d="M187.013 53.0264H186.873C186.523 53.0264 186.183 52.9487 185.863 52.8045C185.543 52.6602 185.253 52.4493 185.013 52.1719C184.773 51.9055 184.573 51.5837 184.443 51.2285C184.313 50.8734 184.243 50.4961 184.243 50.1076V42.8162C184.243 42.6609 184.303 42.5166 184.393 42.4056C184.493 42.2946 184.623 42.2391 184.763 42.2391C184.903 42.2391 185.033 42.3057 185.133 42.4056C185.233 42.5166 185.283 42.6609 185.283 42.8162V50.1076C185.283 50.3407 185.313 50.5738 185.393 50.7846C185.473 50.9955 185.583 51.1953 185.733 51.3617C185.883 51.5282 186.053 51.6614 186.243 51.7502C186.433 51.8389 186.643 51.8833 186.853 51.8833H186.993C187.203 51.8833 187.403 51.8389 187.593 51.7502C187.783 51.6614 187.953 51.5282 188.103 51.3728C188.253 51.2064 188.363 51.0177 188.443 50.8068C188.523 50.596 188.563 50.3629 188.563 50.1409V42.8162C188.563 42.6609 188.613 42.5166 188.713 42.4056C188.813 42.2946 188.943 42.2391 189.083 42.2391C189.223 42.2391 189.353 42.3057 189.453 42.4056C189.553 42.5166 189.603 42.6609 189.603 42.8162V50.1076C189.603 50.485 189.543 50.8734 189.413 51.2285C189.283 51.5837 189.093 51.9055 188.843 52.1719C188.603 52.4382 188.313 52.6602 187.993 52.8045C187.673 52.9487 187.333 53.0264 186.993 53.0264H187.013Z" fill="#0E2138"/>
<path id="Vector_25" d="M199.143 43.4932H197.623V52.4493C197.623 52.6047 197.563 52.749 197.473 52.86C197.373 52.9709 197.243 53.0264 197.103 53.0264C196.963 53.0264 196.833 52.9598 196.733 52.86C196.633 52.749 196.583 52.6047 196.583 52.4493V43.4932H195.063C194.923 43.4932 194.793 43.4266 194.693 43.3267C194.593 43.2158 194.543 43.0715 194.543 42.9161C194.543 42.7607 194.603 42.6165 194.693 42.5055C194.793 42.3945 194.923 42.339 195.063 42.339H199.153C199.293 42.339 199.423 42.4056 199.523 42.5055C199.623 42.6165 199.673 42.7607 199.673 42.9161C199.673 43.0715 199.623 43.2158 199.523 43.3267C199.423 43.4377 199.293 43.4932 199.153 43.4932H199.143Z" fill="#0E2138"/>
<path id="Vector_26" d="M205.233 53.0264C205.163 53.0264 205.093 53.0264 205.033 52.9931C204.963 52.9709 204.913 52.9265 204.863 52.8711C204.813 52.8156 204.773 52.749 204.753 52.6824C204.733 52.6158 204.713 52.5381 204.713 52.4604V42.8273C204.713 42.7496 204.713 42.6609 204.733 42.5832C204.753 42.5055 204.793 42.4389 204.843 42.3723C204.893 42.3168 204.953 42.2613 205.023 42.228C205.093 42.1947 205.163 42.1725 205.233 42.1725C205.303 42.1725 205.383 42.1947 205.443 42.228C205.513 42.2613 205.573 42.3057 205.623 42.3723C205.673 42.4278 205.713 42.5055 205.733 42.5832C205.753 42.6609 205.763 42.7385 205.753 42.8273V52.4604C205.753 52.5381 205.753 52.6158 205.713 52.6824C205.683 52.749 205.653 52.8156 205.603 52.8711C205.553 52.9265 205.493 52.9709 205.433 52.9931C205.373 53.0264 205.303 53.0375 205.233 53.0264Z" fill="#0E2138"/>
<path id="Vector_27" d="M214.384 53.0264H214.244C213.904 53.0264 213.564 52.9487 213.244 52.8045C212.924 52.6602 212.634 52.4382 212.394 52.1719C212.154 51.9055 211.954 51.5837 211.824 51.2285C211.694 50.8734 211.624 50.4961 211.624 50.1187V45.1468C211.624 44.7695 211.694 44.3811 211.824 44.037C211.954 43.6819 212.154 43.36 212.394 43.0937C212.634 42.8273 212.924 42.6054 213.244 42.4611C213.564 42.3168 213.904 42.2391 214.244 42.2391H214.384C214.724 42.2391 215.064 42.3168 215.384 42.4611C215.704 42.6054 215.994 42.8162 216.234 43.0937C216.474 43.36 216.664 43.6819 216.804 44.037C216.934 44.3922 217.004 44.7695 217.004 45.1468V50.1187C217.004 50.5072 216.934 50.8845 216.804 51.2396C216.674 51.5948 216.484 51.9166 216.234 52.183C215.994 52.4493 215.704 52.6713 215.384 52.8156C215.064 52.9598 214.724 53.0375 214.374 53.0375L214.384 53.0264ZM215.954 45.1579C215.954 44.9249 215.914 44.7029 215.834 44.492C215.754 44.2812 215.644 44.0814 215.494 43.926C215.354 43.7596 215.174 43.6375 214.984 43.5487C214.794 43.4599 214.594 43.4155 214.384 43.4155H214.244C213.824 43.4155 213.434 43.5931 213.134 43.9149C212.844 44.2368 212.674 44.6807 212.664 45.1468V50.1187C212.664 50.3518 212.704 50.5849 212.774 50.7957C212.854 51.0066 212.964 51.2064 213.114 51.3728C213.264 51.5393 213.434 51.6725 213.634 51.7613C213.824 51.85 214.034 51.8944 214.244 51.8944H214.384C214.594 51.8944 214.794 51.85 214.984 51.7613C215.174 51.6725 215.344 51.5393 215.494 51.3839C215.644 51.2174 215.754 51.0288 215.834 50.8179C215.914 50.6071 215.954 50.374 215.954 50.152V45.169V45.1579Z" fill="#0E2138"/>
<path id="Vector_28" d="M227.513 53.0264C227.353 53.0486 227.203 53.0042 227.073 52.9043C226.943 52.8045 226.843 52.6713 226.803 52.5048L223.793 44.9693V52.5048C223.793 52.6602 223.733 52.8045 223.643 52.9154C223.543 53.0264 223.413 53.0819 223.273 53.0819C223.133 53.0819 223.003 53.0153 222.903 52.9154C222.803 52.8045 222.753 52.6602 222.753 52.5048V42.8384C222.753 42.7496 222.773 42.6609 222.803 42.5832C222.833 42.5055 222.883 42.4278 222.943 42.3723C223.003 42.3168 223.073 42.2724 223.143 42.2391C223.223 42.2169 223.293 42.2058 223.373 42.2058C223.523 42.1836 223.673 42.228 223.803 42.3168C223.933 42.4056 224.033 42.5388 224.083 42.6942L227.083 50.2963V42.7607C227.083 42.6831 227.093 42.5943 227.123 42.5277C227.153 42.45 227.193 42.3834 227.243 42.3279C227.293 42.2724 227.363 42.228 227.433 42.2058C227.503 42.1836 227.573 42.1725 227.643 42.1725C227.713 42.1725 227.783 42.1836 227.843 42.2169C227.903 42.2502 227.963 42.2946 228.013 42.339C228.063 42.3945 228.103 42.4611 228.123 42.5277C228.143 42.5943 228.153 42.672 228.153 42.7496V52.3273C228.153 52.416 228.153 52.5159 228.123 52.6047C228.093 52.6935 228.053 52.7712 227.993 52.8378C227.933 52.9044 227.863 52.9487 227.783 52.982C227.703 53.0153 227.623 53.0264 227.543 53.0153L227.513 53.0264Z" fill="#0E2138"/>
<path id="Vector_29" d="M236.363 53.0264H236.243C234.823 53.0264 233.503 52.0165 233.503 50.1853C233.503 50.03 233.553 49.8857 233.653 49.7747C233.753 49.6637 233.883 49.6082 234.023 49.6082C234.163 49.6082 234.293 49.6748 234.393 49.7747C234.493 49.8857 234.543 50.03 234.543 50.1853C234.543 50.4184 234.593 50.6515 234.683 50.8623C234.773 51.0732 234.903 51.2729 235.063 51.4283C235.223 51.5837 235.413 51.7058 235.613 51.7724C235.813 51.8389 236.033 51.8722 236.243 51.8389H236.383C236.593 51.8722 236.803 51.85 237.013 51.7835C237.213 51.7058 237.403 51.5837 237.553 51.4172C237.703 51.2507 237.823 51.051 237.883 50.829C237.953 50.6071 237.973 50.3629 237.943 50.1298C237.943 48.8758 237.163 48.5206 236.303 47.999C234.973 47.2 233.633 46.7893 233.633 44.8583C233.643 44.492 233.723 44.1369 233.853 43.804C233.993 43.471 234.183 43.1825 234.423 42.9383C234.663 42.6942 234.953 42.5055 235.253 42.3834C235.563 42.2613 235.883 42.2058 236.213 42.228H236.353C237.673 42.228 238.863 43.2713 238.863 44.6807C238.863 44.7584 238.863 44.8361 238.833 44.9027C238.813 44.9693 238.773 45.0358 238.723 45.0913C238.673 45.1468 238.623 45.1912 238.553 45.2134C238.493 45.2467 238.423 45.2578 238.353 45.2467C238.213 45.2467 238.083 45.1912 237.973 45.0913C237.873 44.9915 237.803 44.8472 237.783 44.6918C237.733 44.3034 237.553 43.9482 237.273 43.7041C236.993 43.4599 236.643 43.3489 236.293 43.3822H236.173C235.983 43.36 235.793 43.3822 235.623 43.4488C235.443 43.5154 235.283 43.6153 235.133 43.7485C234.993 43.8816 234.873 44.0481 234.793 44.2368C234.713 44.4255 234.663 44.6252 234.653 44.8361C234.653 45.9459 235.503 46.3121 236.253 46.7227C237.633 47.544 238.943 48.0434 238.943 50.1298C238.963 51.8944 237.983 52.9931 236.323 52.9931L236.363 53.0264Z" fill="#0E2138"/>
<path id="Vector_30" d="M47.3835 0.0443954C47.5135 0.0998856 47.6335 0.18867 47.7335 0.29965C47.6335 0.18867 47.5235 0.0998856 47.3835 0.0443954Z" fill="#FFAB4D"/>
<path id="Vector_31" d="M47.9235 0.843452C47.9235 0.965531 47.9235 1.09871 47.8735 1.22079C47.8335 1.34286 47.7735 1.45384 47.6935 1.54263L46.3135 3.07416V51.4949H47.1235C47.2335 51.4949 47.3335 51.5171 47.4335 51.5615C47.5335 51.6059 47.6235 51.6725 47.6935 51.7502C47.7635 51.8278 47.8235 51.9277 47.8635 52.0387C47.9035 52.1497 47.9235 52.2607 47.9235 52.3827V0.898943C47.9235 0.898943 47.9235 0.865649 47.9235 0.843452Z" fill="#EE7219"/>
<path id="Vector_32" d="M1.61348 50.2186V3.06306L22.8235 26.6464L23.9535 25.3923L2.75348 1.78678H0.813485C0.703485 1.78678 0.603485 1.76459 0.503485 1.7202C0.403485 1.6758 0.313485 1.60922 0.243485 1.53153C0.163485 1.45384 0.113485 1.35396 0.0634847 1.24298C0.0234847 1.132 0.00348469 1.02102 0.00348469 0.898941V52.4826C-0.00651531 52.3494 0.00348469 52.2163 0.0534847 52.0942C0.0934847 51.9721 0.153485 51.8611 0.243485 51.7613L1.62348 50.2186H1.61348Z" fill="#EE7219"/>
<path id="Vector_33" d="M0.063418 52.7157C0.033418 52.638 0.013418 52.5492 0.00341797 52.4604C0.023418 52.638 0.083418 52.8045 0.183418 52.9376C0.283418 53.0708 0.423418 53.1707 0.573418 53.2262C0.463418 53.1929 0.353418 53.1263 0.273418 53.0375C0.183418 52.9487 0.113418 52.8378 0.073418 52.7157H0.063418Z" fill="#FFAB4D"/>
<path id="Vector_34" d="M0.583496 53.2262C0.653496 53.2481 0.733496 53.2701 0.813496 53.2701C0.733496 53.2701 0.663496 53.2481 0.583496 53.2262Z" fill="#FFAB4D"/>
<path id="Vector_35" d="M47.1335 51.4838H2.76353L46.3235 3.06306L47.7035 1.53153C47.7835 1.44275 47.8435 1.33176 47.8835 1.20969C47.9235 1.08761 47.9335 0.965529 47.9335 0.832353C47.9335 0.810157 47.9335 0.787961 47.9335 0.765765C47.9335 0.688078 47.9135 0.62149 47.8835 0.543804C47.8635 0.466118 47.8335 0.399529 47.7935 0.332941V0.288549C47.7035 0.166471 47.5835 0.0776863 47.4535 0.0332941H47.4035C47.3335 0.011098 47.2635 0 47.1935 0H0.723535C0.653535 0 0.573535 0.0332941 0.513535 0.0554902C0.443535 0.0887843 0.383535 0.133176 0.333535 0.177569L0.283535 0.210863C0.283535 0.210863 0.193535 0.310745 0.163535 0.366235C0.153535 0.388431 0.143535 0.410627 0.133535 0.432824C0.103535 0.477216 0.0835347 0.521608 0.0635347 0.577098V0.665882C0.0635347 0.665882 0.0635347 0.754667 0.0635347 0.799059C0.0635347 0.821255 0.0635347 0.854549 0.0635347 0.876745C0.0635347 1.09871 0.143535 1.32067 0.283535 1.48714C0.423535 1.65361 0.613535 1.75349 0.823535 1.76459H45.1935L23.9735 25.3479L22.8435 26.602L1.62353 50.2186L0.253535 51.7391C0.173535 51.8278 0.103535 51.9499 0.0635347 52.072C0.0235347 52.1941 0.00353467 52.3273 0.0135347 52.4604C0.0235347 52.638 0.0935347 52.8045 0.193535 52.9376C0.293535 53.0708 0.433535 53.1707 0.583535 53.2262C0.653535 53.2484 0.733535 53.2706 0.813535 53.2706H47.1435C47.3435 53.2484 47.5335 53.1485 47.6735 52.982C47.8135 52.8156 47.8835 52.6047 47.8835 52.3716C47.8835 52.1386 47.8035 51.9277 47.6735 51.7613C47.5335 51.5948 47.3435 51.4949 47.1435 51.4727H47.1335V51.4838Z" fill="#0E2138"/>
</g>
</g>
</g>
</g>
<defs>
<clipPath id="clip0_394_46">
<rect width="1512" height="246" fill="white" transform="translate(-120.493 -96)"/>
</clipPath>
</defs>
</svg>
