<svg preserveAspectRatio="none" width="100%" height="100%" overflow="visible" style="display: block;" viewBox="0 0 130 36.4176" fill="none" xmlns="http://www.w3.org/2000/svg">
<g id="Group 1171275431">
<path id="Vector" d="M105.121 0H106.054C107.456 0.337488 108.544 1.09239 108.964 2.53235C109.22 3.43089 109.11 4.39393 108.659 5.21218C108.183 6.06783 107.444 6.63352 106.504 6.89556C105.614 7.14436 104.662 7.02833 103.857 6.57302C103.042 6.10328 102.447 5.32814 102.204 4.41905C101.961 3.50382 102.093 2.5291 102.572 1.71202C103.185 0.669421 104.019 0.288758 105.121 0Z" fill="var(--fill-0, #00586A)"/>
<path id="Vector_2" d="M9.60364 10.0126C11.9349 9.75347 15.1744 10.3259 16.9122 12.0201C17.8801 12.9637 18.5053 14.501 18.7305 15.8149C19.2922 19.092 19.0499 22.5347 19.0133 25.8537C18.9948 29.2714 19.0061 32.6893 19.0476 36.1069L13.1937 36.1042L13.1944 33.361C11.8483 34.551 10.8124 35.2769 9.10103 35.8915C5.89639 37.0424 1.46453 36.4335 0.21395 32.778C-0.300927 31.0673 0.180355 28.5029 0.947293 26.9202C3.07091 22.5381 8.88557 21.0643 13.206 19.5884C13.1606 18.3007 13.077 16.4551 12.4071 15.3604C11.595 14.0333 9.52656 14.2011 8.37615 14.9769C7.16972 15.7903 6.95903 16.5787 6.67119 17.9045C4.7657 17.9464 2.71482 17.9087 0.797555 17.9094C1.16072 16.2401 1.49268 14.7841 2.55722 13.3924C4.26608 11.1583 6.90493 10.2694 9.60364 10.0126Z" fill="var(--fill-0, #00586A)"/>
<path id="Vector_3" d="M13.2535 23.4783C13.3901 23.6356 13.3531 24.5798 13.3561 24.842C13.3878 27.6104 13.0586 31.1586 9.75003 31.8645C8.61339 32.107 7.72114 31.9998 6.73734 31.3744C5.7655 30.4714 5.69038 29.4183 6.18879 28.2344C7.25216 25.7086 10.9243 24.4835 13.2535 23.4783Z" fill="var(--fill-0, #E7E2DF)"/>
<path id="Vector_4" d="M55.6839 10.0149C60.2473 9.70132 64.6656 12.6778 65.255 17.3778C65.5408 19.6571 65.4721 22.0049 65.3893 24.2965L52.7439 24.2979C52.6952 25.9766 52.6547 29.6469 53.6468 31.0351C54.0755 31.5515 54.8521 31.8445 55.494 31.8774C58.171 32.0149 59.368 30.8283 59.5995 28.2888L65.381 28.2897L65.3066 29.0105C64.6605 34.1043 61.5586 36.1513 56.6754 36.3789C53.8619 36.5101 51.1444 35.8048 48.9859 33.9156C47.5031 32.6177 46.7981 30.8701 46.7472 28.9339C46.6411 25.6205 46.6965 22.3019 46.7602 18.9876C46.7807 17.9237 46.7962 16.6899 47.055 15.6564C47.3199 14.5988 47.9182 13.6222 48.6399 12.8108C50.4323 10.7956 53.0861 10.1406 55.6839 10.0149Z" fill="var(--fill-0, #00586A)"/>
<path id="Vector_5" d="M55.4341 14.5784C55.63 14.5634 55.871 14.5325 56.0644 14.5438C59.3283 14.7341 59.597 17.1653 59.5997 19.644L57.1455 19.6452L52.8747 19.6425C52.9294 17.524 53.0209 15.2251 55.4341 14.5784Z" fill="var(--fill-0, #E7E2DF)"/>
<path id="Vector_6" d="M119.956 9.88224C124.28 9.42239 127.87 11.8625 129.636 15.7196C128.327 16.5557 126.466 17.4365 125.034 18.0144C124.704 17.0814 124.284 16.3415 123.58 15.6344C121.765 13.8102 118.245 14.2125 118.331 17.258C118.377 18.8436 120.501 19.7171 121.72 20.3429C123.808 21.4158 126.099 22.2802 127.831 23.9257C130.757 26.6103 130.645 31.2594 127.965 34.0705C126.226 35.8957 123.997 36.3623 121.553 36.4045C120.13 36.3841 118.563 36.2029 117.3 35.5073C114.796 34.1282 113.049 31.8107 112.214 29.1203C113.876 28.726 115.551 28.3882 117.236 28.1075C117.338 28.3907 117.448 28.6596 117.569 28.9388C118.547 31.3683 122.475 32.9899 124.28 30.5409C126.501 27.5254 120.24 25.3207 118.491 24.4403C117.626 24.0087 116.802 23.4968 116.032 22.9113C112.636 20.2831 111.772 16.498 114.458 12.9017C115.799 11.107 117.749 10.1597 119.956 9.88224Z" fill="var(--fill-0, #00586A)"/>
<path id="Vector_7" d="M71.5808 4.86097L77.5075 4.86573L77.5171 10.516L81.3516 10.5187L81.3528 14.9355L77.5082 14.9374L77.5012 28.8651C77.5031 29.2482 77.5203 29.6036 77.5928 29.9822C77.9245 31.712 80.0091 31.441 81.3407 31.4231C81.3821 32.7671 81.3719 34.159 81.3783 35.5069V36.1296C78.7507 36.2817 75.0231 36.7801 73.0244 34.7353C72.477 34.1806 71.8551 33.2429 71.7393 32.4508C71.442 30.421 71.5502 28.135 71.5515 26.0857L71.5642 14.9389L68.5464 14.9372L68.5502 10.5148L71.5718 10.517C71.5648 8.63169 71.5674 6.74631 71.5808 4.86097Z" fill="var(--fill-0, #00586A)"/>
<path id="Vector_8" d="M97.5802 10.1387C97.8253 10.1152 98.1697 10.1367 98.4237 10.1453L98.4192 16.1081C96.9272 15.715 94.4243 14.98 93.1875 16.2162C92.8438 16.5556 92.6115 16.9914 92.5204 17.4659C92.29 18.7069 92.3689 22.4204 92.367 23.8437L92.3747 36.104L86.5618 36.1062L86.5644 34.6364L86.5663 10.5147L92.1264 10.5187L92.1245 13.6573C93.5383 11.9839 95.3065 10.3755 97.5802 10.1387Z" fill="var(--fill-0, #00586A)"/>
<path id="Vector_9" d="M102.773 10.5141L108.589 10.517L108.582 36.1067L102.772 36.1103C102.736 33.241 102.771 30.2799 102.771 27.403L102.773 10.5141Z" fill="var(--fill-0, #00586A)"/>
<path id="Vector_10" d="M26.0602 28.9103C28.047 28.5936 29.9124 29.9525 30.2189 31.9397C30.5254 33.9267 29.1559 35.7839 27.1659 36.0797C25.1905 36.3733 23.3489 35.0171 23.0447 33.0446C22.7405 31.0722 24.088 29.2247 26.0602 28.9103Z" fill="var(--fill-0, #00586A)"/>
<path id="Vector_11" d="M38.977 10.0798C40.9562 9.88527 42.7235 11.3188 42.9401 13.2944C43.1567 15.27 41.7419 17.052 39.7675 17.2903C38.4707 17.4468 37.1897 16.8948 36.4134 15.845C35.6371 14.7952 35.4852 13.4094 36.0156 12.2165C36.546 11.0236 37.6771 10.2076 38.977 10.0798Z" fill="var(--fill-0, #00586A)"/>
<path id="Vector_12" d="M38.7591 28.9103C40.7402 28.5936 42.6027 29.9433 42.9169 31.9236C43.2311 33.904 41.878 35.7633 39.8959 36.0747C37.9177 36.3854 36.0614 35.0363 35.7478 33.0598C35.4341 31.0833 36.7817 29.2264 38.7591 28.9103Z" fill="var(--fill-0, #00586A)"/>
<path id="Vector_13" d="M26.1153 10.1425C28.0901 9.80064 29.9685 11.1232 30.3107 13.0967C30.653 15.0702 29.3296 16.9474 27.3549 17.2896C25.3799 17.6318 23.5012 16.3092 23.1589 14.3355C22.8166 12.3618 24.1402 10.4845 26.1153 10.1425Z" fill="var(--fill-0, #00586A)"/>
<path id="Vector_14" d="M32.8965 19.4872C34.9084 19.4224 36.5886 21.0065 36.6408 23.0174C36.693 25.0284 35.0972 26.6974 33.0846 26.7368C31.09 26.7758 29.438 25.1984 29.3863 23.2054C29.3347 21.2124 30.9026 19.5515 32.8965 19.4872Z" fill="var(--fill-0, #00586A)"/>
</g>
</svg>
